<svg xmlns="http://www.w3.org/2000/svg" width="482.3" height="469.045" viewBox="0 0 482.3 469.045">
  <g id="hero_illustration" data-name="hero illustration" transform="translate(-186.267 -16.463)">
    <g id="Layer_2" data-name="Layer 2" transform="translate(186.267 16.463)">
      <g id="Group_9344" data-name="Group 9344">
        <path id="Path_13944" data-name="Path 13944" d="M472.716,483.392l-4.962-.234-.862-.038-14.161.908,8.866.393a34.527,34.527,0,0,0,5.31-.015q.615-.052,1.218-.121A32.054,32.054,0,0,0,472.716,483.392Zm328.453-80.419-.492-.469q-.26-.229-.522-.446a10.782,10.782,0,0,0-3.132-1.694,11.956,11.956,0,0,0-7.58,4.925v.008q.093.33.2.673l.114.325q.19.321.386.666l3.487,5.741q2.87,4.668,6.974,11.218a2.778,2.778,0,0,0,.212.378q.121.2.25.416l9.69,17.625q.317.586.635,1.188.227.437.439.862l3.419,7.035a11.483,11.483,0,0,0-7.618,1.309q-.72.372-1.445.84-5.568,4.176-8.155,6.2a14.42,14.42,0,0,0-2.527,1.74q-2.693,1.785-6.309,4.554-2.326,1.8-4.229,3.207-2.372,1.752-4.085,2.9l-.356.235q-6.6,4.493-8.533,5.492a7.4,7.4,0,0,0-1.15.772,1.924,1.924,0,0,1-.257.076,23.539,23.539,0,0,0-1.967,1.3q-.166.121-.363.257l2.708,4.009,44.767-32.785a22.133,22.133,0,0,1,5.931,4.493q2.95,3.268,2.133,6.581a9.513,9.513,0,0,1-1.051,1.566l.023-.008A4.312,4.312,0,0,0,823.8,462.6q.087-.209.167-.439a18.53,18.53,0,0,0-1.135-15.4q-.507-.98-.991-1.891l-5.03-9.668L814.331,431q-.53-.9-1.15-1.937-.41-.735-.832-1.573l-2.042-4.811q-.11-.315-.227-.635-.094-.254-.2-.537l-1.808-5.643q-.125-.447-.265-.915a41.694,41.694,0,0,0-1.5-4.04c-.056-.129-.114-.258-.174-.386l-1.324-2.64q-.246-.452-.507-.878c-.009-.015-.019-.03-.03-.045.009.02.016.04.023.061q-.2-.336-.409-.658l-1.2-1.679-.06-.076q-.391-.489-.8-.938Q801.507,403.308,801.168,402.973Zm-145.716,42.49A75.562,75.562,0,0,1,665.7,446.6q2.345.408,3,1.6a5.011,5.011,0,0,1,.356,2.035q16.886-.483,41.28-6.453.321.322.666.651l1.392-1.157,5.015-4.236.461-.4,1.271-1.127q.271-.262.378-.386l.507-.567,5.174-5.991q.25-.292.492-.582.325-.388.635-.772l10.469-15.765a28.477,28.477,0,0,0,.287-8.23c0-.032,0-.065-.008-.1q-.01-.191-.023-.378c-.006-.121-.011-.239-.015-.356l-.166-6.649q.016-.5.045-.885a12.754,12.754,0,0,1,.348-2.738h-.008a.042.042,0,0,0,.008-.015,19.209,19.209,0,0,0-7.338,4.614q-.233.317-.461.658l-3.094,5.56-.371.84q-.066.137-.129.28-.038.074-.129.3l-2.534,6.475q-.207.524-.424,1.089-.6,1.664-1.3,3.162-3.343,7.474-15.008,17.807-.069.166-.121.333a26.089,26.089,0,0,0-5.189.817q-4.009,1-12.164,3.117-8.17,2.1-21.3,2.163Q658.321,441.372,655.452,445.463Z" transform="translate(-348.188 -288.156)" fill="#f0f0ff" fill-rule="evenodd"/>
        <path id="Path_13945" data-name="Path 13945" d="M516.017,356.841q-.426,8.507-1.46,35.72-.256,6.758-.545,14.668-.759,20.384-1.763,48.421,5.047,5.571,14.433,6.785,1.727.22,3.6.295l-.053-25.462-.114-53.239-.136-67.219-6.506-63.179,7.625-6.763-6.445-2.269,10.923-18.624a32.486,32.486,0,0,0-4.962,3.344,51.859,51.859,0,0,0-4.418,4.039q-1.059,1.24-1.982,2.557a34.208,34.208,0,0,0-5.885,12.285q-1.392,6.082-1.921,9.637a48.755,48.755,0,0,0-.651,6.339q-.06,2.784.363,11.982.424,9.183,2.088,23.45a131.651,131.651,0,0,1,.938,24.267q-.7,10.031-2.9,29.275-.046.4-.121,1.732Q516.076,355.691,516.017,356.841Zm57.491-141.851,2.557,1.074a1.235,1.235,0,0,1,.091,1.014q-.2.348-1.71,2.859a69.444,69.444,0,0,1-17.9,14.963,49.89,49.89,0,0,1-7.852,3.813,43.1,43.1,0,0,0,2.542,7.338A52.436,52.436,0,0,0,555,252.844l11.99-10.28q2.24-3.247,4.864-6.543,3.449-4.3,6.854-8.457,3.374-4.161,1.876-7.686l.091.068a10.1,10.1,0,0,0-1.77-3.336,6.813,6.813,0,0,0-5.348-2.859q-.047.234-.1.477ZM562.093,466l3.828.31,1.4.113q-5.643-84-5.991-87.779-1.135-11.846-1.437-23.783-.03-1.619-.03-3.238a100.109,100.109,0,0,1,1.876-19.789,148.321,148.321,0,0,1,5.174-19.38,118.123,118.123,0,0,1,5.916-14.705,121.932,121.932,0,0,0,5.189-12.224,57.482,57.482,0,0,0,2.935-14.584q.635-8.049,5.946-20.485,4.758-11.173,14.07-12.739a18.911,18.911,0,0,1,2.163-.227l-13.253-9.062-8.654,19.97-12.572,1.452,6.869,7.4L570.7,267.08l6.074.635-2.224,11.453-9.3-.976-19.176,39.116-4.758,72.627-4.2,64.041-.651,9.963,4.13.333ZM595.279,242.48A235.6,235.6,0,0,1,612.2,277.829q3.127,8.212,5.681,16.725,2.257,7.466,4.055,15.038,5.3-1.348,9.637-2.284,1.148-.251,2.443-.545a117.739,117.739,0,0,0-6.468-25.568q-5.083-13.3-11-28.821-3.84-10.071-10.129-12.134a12.4,12.4,0,0,0-7.572.121A18.524,18.524,0,0,0,595.279,242.48Zm-50.887-14.857a9.725,9.725,0,0,1-3.154-1.392,160.961,160.961,0,0,0-5.129,21.725l7.852-10.106q.045-.484-.166-4.781A17.924,17.924,0,0,1,544.392,227.623Zm116.713,75.646a9.389,9.389,0,0,0-2.708-.56,9.019,9.019,0,0,0-4.289.734,9.48,9.48,0,0,0-2.534,1.672,9.349,9.349,0,0,0-3.177,6.611,9.863,9.863,0,0,0,.3,3.2,9,9,0,0,0,.93,2.232l2.784.2a9.266,9.266,0,0,1-1.1-3.495,3.314,3.314,0,0,1,.8-2.511,1.424,1.424,0,0,1-.106-.514q0-6.127,6.944-7.323A18.961,18.961,0,0,1,661.105,303.269Zm2.186,14.842q-.507-.178-1.006-.363-.223-.08-.439-.166.117.222.227.446Zm-117.8,51.318a1.889,1.889,0,0,1,.59-1.407,1.989,1.989,0,0,1,1.437-.59,1.938,1.938,0,0,1,1.422.59,1.889,1.889,0,0,1,.59,1.407,1.938,1.938,0,0,1-.59,1.422,1.964,1.964,0,0,1-1.422.575,2.015,2.015,0,0,1-1.437-.575A1.939,1.939,0,0,1,545.489,369.429Zm1.346-19.048a1.956,1.956,0,0,1,.59-1.437,2.007,2.007,0,0,1,1.452-.59,1.974,1.974,0,0,1,1.452.59,2.009,2.009,0,0,1,0,2.875,1.974,1.974,0,0,1-1.452.59,2.007,2.007,0,0,1-1.452-.59A1.956,1.956,0,0,1,546.835,350.381Zm1.937-18.276a2.045,2.045,0,0,1,0-2.875,2.006,2.006,0,0,1,1.452-.59,1.956,1.956,0,0,1,1.437.59,1.975,1.975,0,0,1,0,2.875,1.956,1.956,0,0,1-1.437.59A2.006,2.006,0,0,1,548.772,332.105Zm315.956-26.219.151.182q.246.291.5.545,2.874,2.723,8.79,3v-.015a75.418,75.418,0,0,1,2.587-10.152q.091-.242,3.071-8.593,1.389-3.805,2.148-6.77v-.008c-.076.071-.149.142-.219.212l-1.793,1.573a3.7,3.7,0,0,1-.424.3v-.008q.184-.684.363-1.354l6.309-15.976a32.464,32.464,0,0,0-5.1-1.513l-.968-.182a.92.92,0,0,0-.1-.023l-.1-.023c0,.01-.01.025-.03.045a21.421,21.421,0,0,0-2.5,9.425q-.119.758-.257,1.505l-7.6,20.7q-.189.327-.386.651l-.1.159q-.1.168-.2.333-1.467,2.269-3.071,4.387A7.82,7.82,0,0,0,864.728,305.886Zm36.794-11.173,6.089.635-.31-1.581q0-7.08,5.447-14.554a22.5,22.5,0,0,1,6.747-6.324l1.377-.741a9.193,9.193,0,0,1,2.148.257,11.446,11.446,0,0,0-4.524-.31l-.076.008c-.093.011-.187.024-.28.038-.023,0-.045,0-.068.008l-12.95,12.239v.008q-.394,1.175-.862,2.5-2.012,5.477-2.557,7.217Q901.61,294.412,901.522,294.713Zm7.073,5.7-1.278,6.589-8.094-.847a90.26,90.26,0,0,0-.56,10.288q0,.741.015,1.483.238.034.477.061l.779.03q10.137,0,9.728-12.134Zm23.654,13.669q.283.466.583.946l1.672,2.655,5.348,7.557q.432.546.84,1.021-.093-.124-.189-.25l.2.234q-.5-.676-1.036-1.384l-7.156-10.386q-.1-.139-.189-.28Z" transform="translate(-481.765 -162.376)" fill="#e8effd" fill-rule="evenodd"/>
        <path id="Path_13946" data-name="Path 13946" d="M526.388,232.177q-18.5,5.079-17.731,30.757-.015,5.053,1.331,26.461,1.362,21.392,1.347,21.438a287.8,287.8,0,0,1-5.961,45.758l6.521,1.15q.074-1.332.121-1.732,2.209-19.244,2.9-29.275a131.654,131.654,0,0,0-.938-24.267q-1.664-14.267-2.088-23.45-.423-9.2-.363-11.982a48.8,48.8,0,0,1,.651-6.339q.53-3.555,1.921-9.637a34.208,34.208,0,0,1,5.885-12.285q.923-1.316,1.982-2.557A51.827,51.827,0,0,1,526.388,232.177Zm43.118-11.907.711,2.527q1.513-2.511,1.709-2.859a1.234,1.234,0,0,0-.091-1.014l-2.557-1.074Zm-6.415,249.01a131.869,131.869,0,0,0,16.143-.242,95.663,95.663,0,0,0,12.315-1.755,623.92,623.92,0,0,1-9.229-97.553l-.242-8.624,14.161-.908.862.038a54.816,54.816,0,0,0-2.224-5.757q-1.135-4.025-3.313-10.59-2.194-6.536-.666-19.441,1.543-12.966,7.05-21.09.255-.372.5-.749-5.423-11.447-9.819-21.99-5.991-14.312-4.221-23.768.287-1.18.605-2.3a17.163,17.163,0,0,1,5.356-8.639,1.052,1.052,0,0,1,.151-.151.633.633,0,0,1,.167-.121.048.048,0,0,0,.03-.045.245.245,0,0,0,.121-.106.182.182,0,0,0,.121-.121.077.077,0,0,0,.091-.03,18.53,18.53,0,0,1,3.57-2.118,12.4,12.4,0,0,1,7.572-.121,27.738,27.738,0,0,0-3.291-2.754,18.914,18.914,0,0,0-2.163.227q-9.312,1.565-14.07,12.739-5.31,12.436-5.946,20.485a57.493,57.493,0,0,1-2.935,14.584,121.96,121.96,0,0,1-5.189,12.224,118.124,118.124,0,0,0-5.916,14.705,148.3,148.3,0,0,0-5.174,19.38,100.114,100.114,0,0,0-1.876,19.789q0,1.619.03,3.238.3,11.937,1.437,23.783Q557.449,385.284,563.092,469.281Zm3.381-199.341-11.082-1.165-2.224,11.453,7.86.825,9.3.976,2.224-11.453Zm70.736,49.639,1.014-.061,7.171.5a9,9,0,0,1-.93-2.232q-1.016.314-2.08.613A50.2,50.2,0,0,1,637.209,319.578Zm-25.591,6.339q2.938,6.525,8.329,8.729a20.143,20.143,0,0,0,4.2,1.173,35.687,35.687,0,0,0,.461-5.817,2.023,2.023,0,0,0-.03-.363l-.5-9.229,6.339-.4q-.583-.041-1.135-.113a22.831,22.831,0,0,1-7.882-2.148,8.247,8.247,0,0,1-3.639-5.068c-.023-.076-.046-.152-.068-.227q-6.778,8.094-6.778,11.755Q611.245,325.1,611.618,325.917Zm-67.075,9.047a2.007,2.007,0,0,0,1.453.59,1.956,1.956,0,0,0,1.437-.59,1.975,1.975,0,0,0,0-2.875A1.956,1.956,0,0,0,546,331.5a2.007,2.007,0,0,0-1.453.59,2.046,2.046,0,0,0,0,2.875Zm-1.936,18.276a1.956,1.956,0,0,0,.59,1.437,2.007,2.007,0,0,0,1.452.59,1.974,1.974,0,0,0,1.452-.59,2.009,2.009,0,0,0,0-2.875,1.974,1.974,0,0,0-1.452-.59,2.007,2.007,0,0,0-1.452.59A1.956,1.956,0,0,0,542.607,353.24Zm-1.347,19.048a1.938,1.938,0,0,0,.59,1.422,2.015,2.015,0,0,0,1.437.575,1.964,1.964,0,0,0,1.422-.575,1.938,1.938,0,0,0,.59-1.422,1.889,1.889,0,0,0-.59-1.407,1.939,1.939,0,0,0-1.422-.59,1.989,1.989,0,0,0-1.437.59A1.889,1.889,0,0,0,541.26,372.288ZM867.292,329l1.816-.348a28.5,28.5,0,0,1-.272-3.964,68.468,68.468,0,0,1,1.1-12.224q-5.916-.272-8.79-3-.253-.253-.5-.545l-.151-.182-1.331,2.859q-.063.218-.121.439t-.1.416l.492,6.574a.336.336,0,0,0,.136.242,12.748,12.748,0,0,0,3.434,5.605l3.154,2.042q.407.186.84.34Q867.154,328.138,867.292,329Zm-.7,30.659q-.481,2-1.044,3.941-2.451,7.973-4.72,15.628h4.07l-3.646,30.046-5.59-.862-.719,32,4.917,1.165,6.748,1.6a69.627,69.627,0,0,0,.424-8.578q-.03-.666-.03-8.276,0-5.462.756-14.01.06-.817.3-3.283.019-.193.038-.393.428-4.271,1.309-12.966.726-7.05,1.21-13.4c.015-.183.031-.364.045-.545q.276-3.346.484-6.49l-1.12-6.339q-.357-.113-.756-.227-2.133-.6-1.755-5.325a.114.114,0,0,1-.015-.045c-.03-.111-.06-.217-.091-.318q-.484-1.664-.681-2.738Q866.653,359.943,866.6,359.663Zm.658-2.98a1.74,1.74,0,0,1,.6-.113l-.272-1.558Q867.424,355.853,867.254,356.682Zm15.908,51.152q-.354,3.585-.545,7.028-.651,12.028,1.664,29.653,1.446.085,2.859.159,5.187.266,9.879.371a186.819,186.819,0,0,0,20.772-.53q4.86-.436,8.782-1.112a45.046,45.046,0,0,0,10.174-2.776l.227-1.71q2.647-19.729.862-34.994-1.74-15.265-8.457-24.721t-11.619-16.218q-1.142-1.579-2-3.026l-3.374,1.49,3.162,17.9,8.041-1.505q11.483,15.613,8.548,33.587l-26.264-.605-1.619-25.893-18.208,3.54q-.055.3-.113.6Q884.042,398.893,883.163,407.834Zm20.22-109.626,1.929.2-.946,4.864,1.067,5.469q.408,12.133-9.728,12.134l-.779-.03q-.238-.027-.477-.061v.008q.083,1.4.114,2.912l8.419-1.634a2.1,2.1,0,0,1,2.8,1.921l4.456,25.258q1.712-1.145,4.085-2.9a24.476,24.476,0,0,1,1.331-2.632q.092-.15.189-.3.128-.281.25-.567l7.1-19.978,2.436-8.593q.1-.343.2-.7l-.008-.008q-.467-.728-.893-1.415l-3.139-4.932a16.168,16.168,0,0,1-2.875.318l-5.076-1.014q-.327-.151-.643-.318-.274-.152-.545-.318l-3.207-3.026v-.53l1.127-14.819q.4-1.046.885-2.1,3.192-6.959,9.471-9.214h-.015q-.121,0-.121-.151a12.675,12.675,0,0,0-2-.8,9.2,9.2,0,0,0-2.148-.257l-1.377.741a22.5,22.5,0,0,0-6.748,6.324q-5.446,7.474-5.446,14.554Z" transform="translate(-477.536 -165.236)" fill="#b9cef6" fill-rule="evenodd"/>
        <path id="Path_13947" data-name="Path 13947" d="M736.69,1501.028l-2.375.877-14.146.908-3.313-1.679q-2.2-1.064-4.357-2.148l-56.416-4.75a104.5,104.5,0,0,0-27.1,1.952q-5.552,1.271-5.462,2.511.091,1.256,5.764,1.725l166.072,13.995a105.255,105.255,0,0,0,27.1-1.937q5.567-1.286,5.477-2.527-.091-1.256-5.779-1.725ZM508.075,1487.42q-2.874,1.553-2.875,3.306.015,4.357,17.671,7.4,17.64,3.026,42.588,2.965,11.106-.02,20.757-.651a56.148,56.148,0,0,1-8.805-1.135,18.141,18.141,0,0,1-.318-3.283,6.8,6.8,0,0,1,1.725-6.9,2.4,2.4,0,0,0,.756-.772,64.819,64.819,0,0,0,6.316-7.693q-6.486-.39-13.624-.507-.354,4.092-5.492,5.552a18.881,18.881,0,0,1-2.36.454,28.15,28.15,0,0,1-8.442,0,21.824,21.824,0,0,1-7.035-2.042q-3.132.8-5.961,1.589a114.953,114.953,0,0,1-15.764,2.814A55.623,55.623,0,0,1,508.075,1487.42Zm108.309-2.557a64.489,64.489,0,0,1,.106,6.77,39.2,39.2,0,0,1-15.795,7.421q3.822-.5,7.353-1.127,17.625-3.1,17.625-7.458Q625.662,1487.32,616.384,1484.863Zm282.838,11.975a18.092,18.092,0,0,0-6.657,3.086,24.814,24.814,0,0,1-6.475,3.449,30.177,30.177,0,0,1-9.244,1.089,26.09,26.09,0,0,1-9.047-2.012,1.981,1.981,0,0,1-1.573-2.012,3.6,3.6,0,0,1,.832-2.678,8.753,8.753,0,0,1-.136-1.952c.017-.2.042-.395.076-.583l-.136.023q-14.494,2.557-14.494,6.127.015,3.586,14.524,6.082a244.729,244.729,0,0,0,70.048-.136q14.509-2.572,14.494-6.142,0-3.586-14.509-6.082-3.874-.667-8.177-1.15-.09.717-.22,1.483a4.33,4.33,0,0,1-1.725,2.481,23.845,23.845,0,0,1-2.6,1.725q-.757,1.467-2.239,4.781a6.437,6.437,0,0,1-3.767,3.359,43.393,43.393,0,0,1-8.926,1.226,49.087,49.087,0,0,1-8.926-.318,4.084,4.084,0,0,1-3.1-2.345,5.533,5.533,0,0,1-.439-3.707.451.451,0,0,1,.015-.106v-.06a12.7,12.7,0,0,1,.923-2.965l.045-.106.136-.318h.015A17.009,17.009,0,0,1,899.222,1496.837Z" transform="translate(-490.358 -1045.586)" fill="#d4e2ee" fill-rule="evenodd" opacity="0.82"/>
        <path id="Path_13948" data-name="Path 13948" d="M503.265,258.313q1.749.48,3.586.862,6.127,1.271,13-2.209,6.43-3.435,7.217-7.217a10.769,10.769,0,0,0,.182-4.872,6.681,6.681,0,0,0-5.628-5.643,5.247,5.247,0,0,0-5.462,1.982q-2.935,3.631-4.675,4.206a6.516,6.516,0,0,1-3.964.681q-7.564-1.574-9.093-7.338-.076-5.6.015-5.991.757-3.661,5.689-9.032,4.8-5.416,5.235-7.5,1.225-5.87-6.6-14.842-5.9-6.959-6.9-10.7a24.123,24.123,0,0,0-3.17-.93l-.477,1.278q-1.089,2.819-1.778,4.947.005.457,0,.923a10.65,10.65,0,0,1,2.973,2.118,9.791,9.791,0,0,1,2.935,7.2,9.988,9.988,0,0,1-8.956,10.2l.045-.136q-8.6-9.1-11.165-13.155-.227-.366-.409-.688-.935-1.882-1.846-3.646-4.022-7.77-7.61-13.268,1.6-.643,3.245-1.157a43.651,43.651,0,0,1,4.849-1.2,40.946,40.946,0,0,1,7.391-.711q.663,0,1.324.015-.493-.385-.946-.749-.431-.347-.825-.673a36.679,36.679,0,0,0-10.454-5.764,35.058,35.058,0,0,0-4.085,1.316q-2.254.808-4.4,1.664a84.955,84.955,0,0,0-22.6,12.8,37.057,37.057,0,0,0-3.8,3.57,1.423,1.423,0,0,0-.272.711q-2.436,9.41,2.557,16.355a1.208,1.208,0,0,1,.2-.3q-2.148-9.244,6.369-15.19l12.239-6.248a17.727,17.727,0,0,1,2.375-1.1l.756-.3a17.389,17.389,0,0,0,1.876-.756q.091.378.166.787a23.432,23.432,0,0,0,.635,3.4,114.5,114.5,0,0,0,4.1,13.072q1.758,4.83,3.018,8.374l.386,1.089.2.023a2.033,2.033,0,0,1,.257.136.044.044,0,0,1,.03.015,2.551,2.551,0,0,1,1.12,1.241,30.317,30.317,0,0,0,1.952,3.843,4.3,4.3,0,0,1,.2,3.094,6.61,6.61,0,0,1,2.549,2.746,7.18,7.18,0,0,1,.424,5.068,16.516,16.516,0,0,1-.741,1.952l-.53,2.148a63.337,63.337,0,0,1,5.462,5.341q2.766,3.508.318,5.015l.106.121a11.445,11.445,0,0,1,4.524.31,12.677,12.677,0,0,1,2,.8q0,.151.121.151.115-.018.227-.03l1.543-.106a12.787,12.787,0,0,1,1.831.136,15.619,15.619,0,0,1,3.737,1.316l2.269,2.519q.339.335.666.7.41.449.8.938l1.294,1.437a9.853,9.853,0,0,1,.378.961q.261.426.507.877l1.324,2.64Q503.18,258.119,503.265,258.313Z" transform="translate(-45.14 -135.561)" fill="#003151" fill-rule="evenodd"/>
        <path id="Path_13949" data-name="Path 13949" d="M530.336,186.68q1,3.737,6.9,10.7,7.822,8.972,6.6,14.842-.439,2.088-5.235,7.5-4.932,5.371-5.689,9.032-.091.393-.015,5.991,1.528,5.764,9.093,7.338a6.516,6.516,0,0,0,3.964-.681,23.174,23.174,0,0,1-2.708-4.645q-1.694-3.767-1.331-5.462.545-2.6,4.463-7.1,3.812-4.539,4.387-7.277,1.71-8.23-3.964-17.02a33.335,33.335,0,0,0-14.055-12.315A23.09,23.09,0,0,0,530.336,186.68Zm-24.872-15.4q-.726-.272-1.437-.53a26.69,26.69,0,0,0-10.605-1.067q-1.1.126-2.163.356a18.29,18.29,0,0,0-10.969,6.536,24.372,24.372,0,0,0-9.7,14.055,37.059,37.059,0,0,1,3.8-3.57,84.955,84.955,0,0,1,22.6-12.8q2.141-.856,4.395-1.664A35.059,35.059,0,0,1,505.464,171.279Zm16.445,41q.832-4.236,1.316-6.627a62.451,62.451,0,0,0,1.687-12.754q.005-.466,0-.923a29.942,29.942,0,0,0-.477-5.159,36.858,36.858,0,0,0-6.748-8.351q-.66-.018-1.324-.015a40.948,40.948,0,0,0-7.391.711,43.651,43.651,0,0,0-4.849,1.2q-1.643.514-3.245,1.157,3.587,5.5,7.61,13.268.91,1.764,1.846,3.646.181.323.408.688Q513.313,203.182,521.91,212.279Z" transform="translate(-79.61 -131.54)" fill="#00558c" fill-rule="evenodd"/>
        <path id="Path_13950" data-name="Path 13950" d="M799.095,597.519a106.129,106.129,0,0,0,29.335-47.793q16.249-57.4,18.427-127.19a53.413,53.413,0,0,1-27.142-16.173q-12.133-13-14.418-29.426l-117.387-8.185A45.663,45.663,0,0,1,676.1,386.059a49.464,49.464,0,0,1-6.869,5.371q-1.467,1.649-3.162,3.222a46.483,46.483,0,0,1-16.884,10.212q2.648,66.4,18.17,123.348,16.234,57.839,86.629,93.831,2.284-.862,4.493-1.77Q782.075,610.68,799.095,597.519ZM537.8,615.961q.469-.166.923-.318a60.134,60.134,0,0,0,20.818,3.283q6.248-1.725,12.648-3.449,13-3.435,20.031-3.434-1.876-10.787-13-14.524-2.8-.8-7.323-2.073-1.12-.287-1.937-.439a4.637,4.637,0,0,0,.817-.923,92.4,92.4,0,0,1-20.318,16.551,50.218,50.218,0,0,1-10.469,4.539A9.422,9.422,0,0,0,537.8,615.961Zm77.3,4.5a64.837,64.837,0,0,1-6.316,7.693,10.385,10.385,0,0,0,2.527.318q17.5,0,22.5-2.345a5.757,5.757,0,0,0,2.927-3.306,12.354,12.354,0,0,0,.673-4.35q0-6.278-7.822-10.182a35.431,35.431,0,0,1-5.3-2.814,8.706,8.706,0,0,0-1.271-.787A60.951,60.951,0,0,1,615.1,620.462Zm71.81-127.138a70.338,70.338,0,0,1-4.735-25.81q0-27.822,19.592-45.811,19.607-17.958,47.309-15.538t47.309,23.828a83.7,83.7,0,0,1,5.87,7.148l7.292-3.548q-1.256-1.815-2.617-3.616-20.061-26.506-51.106-32.543Q724.8,391.4,701,409.388q-23.813,18-26.461,49.5a80.192,80.192,0,0,0,5.673,37.7Zm11.627,19.683-6.967,3.389q.2.257.378.5Q712,543.417,743.026,549.453q31.045,6.036,54.858-11.967Q821.682,519.5,824.33,488a80.174,80.174,0,0,0-4.312-34.162l-7.345,3.578a71.009,71.009,0,0,1,3.321,21.809q0,27.822-19.607,45.811-19.592,17.958-47.309,15.538-27.7-2.42-47.309-23.828Q700.08,514.9,698.539,513.007Zm19.146-43.133q.03.56.061,1.12.091,1.619.318,3.177a32.805,32.805,0,0,0,.741,3.623l7.6-3.7a36.97,36.97,0,0,1-1.49-3.707,32.56,32.56,0,0,1-5.628-.212Q718.381,470.041,717.685,469.874Zm5.416-13.011q-1.074-.65-2.285-1.452a24.829,24.829,0,0,0-1.831,4.493,28.27,28.27,0,0,0-.711,2.829,28.939,28.939,0,0,0-.454,3.268q.454-.287,1.014-.59-.06.015,4.977.862-.318-1.543-.5-3.132-.06-.59-.121-1.165-.136-1.619-.136-3.268Q723.056,457.771,723.1,456.863Zm-.681-4.161a10.959,10.959,0,0,1,.968.968q.211-1.528.56-2.98Q723.147,451.674,722.42,452.7ZM742.4,491.637l-10.681,5.2a34.619,34.619,0,0,0,4.743,3.124q.893-1.21,1.891-2.33a2.536,2.536,0,0,1,2.36-.923l.484.424q-.877,2.133-1.815,4.236,1.21.514,2.481.938,1.437.454,2.92.8a37.335,37.335,0,0,0,4.312.7q.378.045.741.076.514-3.207,1.664-4.1a1.362,1.362,0,0,1,.741-.318,1.7,1.7,0,0,1,.575.212,28.178,28.178,0,0,1,.288,4.312,28.4,28.4,0,0,0,6.43-.8,21.529,21.529,0,0,0,2.133-.62q1.074-.363,2.1-.817l-.363-.212q.06.03-2.39-4.977a37.7,37.7,0,0,1-3.949-.212A35.935,35.935,0,0,1,742.4,491.637Zm-60.645,32.944q-23.6-31.226-20.485-68.278T692.4,398.071q28.019-21.18,64.541-14.085,36.491,7.1,60.108,38.322,23.6,31.211,20.485,68.263T806.4,548.818q-28.034,21.166-64.526,14.07Q705.355,555.793,681.753,524.581ZM964.872,246.75a62.443,62.443,0,0,1-1.687,12.754q-.484,2.391-1.316,6.627l-.045.136a9.988,9.988,0,0,0,8.956-10.2,9.791,9.791,0,0,0-2.935-7.2A10.649,10.649,0,0,0,964.872,246.75ZM765.463,496.244a27.433,27.433,0,0,1,1.74,2.844q.166.333.318.651.136-.091.257-.182a27.446,27.446,0,0,0,2.663-1.967q.438-.378.862-.772a29.024,29.024,0,0,0,2.224-2.224q.56-.62,1.074-1.256-.756.393-1.543.741A31.109,31.109,0,0,1,769,495.5q-1.407.379-2.859.635Q765.811,496.184,765.463,496.244Z" transform="translate(-519.569 -185.391)" fill="#f54871" fill-rule="evenodd"/>
        <path id="Path_13951" data-name="Path 13951" d="M471.008,365.971q1.933,4.078,3.994,8.268,2.542,5.083,4.917,8.941a55.635,55.635,0,0,0,4.259,6.1q-.373-.822-.7-1.71,0-3.661,6.778-11.755c.022.075.045.151.068.227a8.248,8.248,0,0,0,3.639,5.068,22.832,22.832,0,0,0,7.882,2.148q.552.073,1.135.113l6.793-.431a50.2,50.2,0,0,0,5.174-1.18q1.065-.3,2.08-.613a9.864,9.864,0,0,1-.295-3.2,9.348,9.348,0,0,1,3.177-6.611,9.482,9.482,0,0,1,2.534-1.672,52.6,52.6,0,0,0-11.733,1.4q-4.747,1.114-8.359,1.921-1.3.294-2.443.545-4.336.937-9.637,2.285-1.8-7.573-4.055-15.038-2.553-8.513-5.681-16.725A235.589,235.589,0,0,0,463.61,308.7a.077.077,0,0,1-.091.03.182.182,0,0,1-.121.121.245.245,0,0,1-.121.106.048.048,0,0,1-.03.045.635.635,0,0,0-.166.121,1.051,1.051,0,0,0-.151.151,17.162,17.162,0,0,0-5.356,8.639q-.318,1.12-.605,2.3-1.77,9.456,4.221,23.768Q465.585,354.525,471.008,365.971Zm260.6,9.433q.058-.221.121-.439l1.331-2.859a7.823,7.823,0,0,1,1.074-1.6q1.6-2.118,3.071-4.387.1-.165.2-.333l.1-.159q.2-.323.386-.651l7.6-20.7q.139-.748.257-1.505a21.421,21.421,0,0,1,2.5-9.425h-.008l.008-.015a37.724,37.724,0,0,0-7.171.575,7.851,7.851,0,0,0-1.906.635.042.042,0,0,1-.008.015h.008a12.746,12.746,0,0,0-.348,2.738q-.029.38-.045.885l.167,6.649c0,.116.009.235.015.356s.016.251.023.378c0,.033.006.066.008.1a28.476,28.476,0,0,1-.287,8.23l-10.469,15.765q-.311.384-.635.772-.242.29-.492.582L721.932,377l-.507.567q-.107.124-.378.386l-1.271,1.127-.461.4-5.015,4.236-1.392,1.157q-.345-.328-.666-.651-24.393,5.969-41.28,6.453.007.3.008.628a5.769,5.769,0,0,1-.2,1.952,2.807,2.807,0,0,1-.605.772l6.521.454.605.03-.113,2q6.165.16,14.289-.045,14.932-.424,25.856-5.31.35-.394.673-.779l.719.779q.173-.22.34-.439l.461.439q5.749-8.089,8.745-11.869l1.021-1.225q.307-.35.567-.643.935-1.055,1.747-2Zm-3.381,96.372,5.59.862,3.646-30.046h-4.07q-.341,1.157-.681,2.307l-.855,2.935q-.151.488-.3.976-.193.661-.371,1.324l-2.912,19.206-.061,2.436Zm56.719-46.968,3.374-1.49,3.608-1.6q7.55-3.117,11.786-5.235,1.815-.953,4.463-2.315,1.3-.8,4.327-2.269.121-.03,6.884-3.449a4.943,4.943,0,0,1,.514-.151,15.484,15.484,0,0,0,4.758-3.684,9.5,9.5,0,0,0,1.051-1.566q.817-3.313-2.133-6.581a22.133,22.133,0,0,0-5.931-4.493l-44.767,32.785,2.678,4.009q.635-.318,1.316-.59a22.846,22.846,0,0,1,3.253-1.241Q781.747,426.223,784.944,424.808Zm3.162,17.9.159.885a2.2,2.2,0,0,1-1.967,2.859l-9.486,1.838,1.619,25.893,26.264.605q2.935-17.973-8.548-33.587ZM748.476,333.345l.968.182a.668.668,0,0,0,.03-.212h-.34l-.159.008q-.276,0-.545.008l.076.015Zm54.6,10.068-2.269-2.519a15.619,15.619,0,0,0-3.737-1.316,12.78,12.78,0,0,0-1.831-.136l-1.543.106q-.112.012-.227.03h.015q-6.279,2.254-9.471,9.214-.482,1.05-.885,2.1L782,365.706v.53l3.207,3.026q.271.165.545.318.316.167.643.318l5.076,1.014a16.162,16.162,0,0,0,2.875-.318l3.139,4.932q.426.686.893,1.415l.008.008q.726,1.074,1.5,2.284l.7,1.074.076.113q.093.141.189.28L808,391.086q.532.708,1.036,1.384l-.2-.234q.1.125.189.25.263.359.522.688a11.483,11.483,0,0,1,7.618-1.309l-3.419-7.035q-.212-.426-.439-.862-.319-.6-.635-1.188l-9.69-17.625q-.129-.211-.25-.416a2.778,2.778,0,0,1-.212-.378q-4.1-6.55-6.974-11.218l-3.487-5.741q-.2-.345-.386-.666-.058-.164-.113-.325-.111-.344-.2-.673v-.008a11.956,11.956,0,0,1,7.58-4.925,10.784,10.784,0,0,1,3.132,1.694q.261.217.522.446Zm3.139,4.032a9.843,9.843,0,0,0-.378-.961l-1.293-1.437.06.076,1.2,1.679q.207.322.409.658c-.007-.02-.014-.04-.023-.061C806.2,347.415,806.207,347.431,806.216,347.446Z" transform="translate(-350.096 -228.596)" fill="#cedefe" fill-rule="evenodd"/>
        <path id="Path_13952" data-name="Path 13952" d="M583.686,410.978a5.875,5.875,0,0,0-1.036,1.763,8.522,8.522,0,0,0-.492,3q0,1.392,2.1,3.177,4.509,3.858,4.629,3.979,2.325.518,4.017.719.289-7.91.545-14.668-.581-.13-1.188-.227a10.427,10.427,0,0,0-6.944.908A6.2,6.2,0,0,0,583.686,410.978ZM997.86,618.594q.106-1,.182-1.891a54.879,54.879,0,0,0,.348-8.4q-.423-2.874-.575-4.357a39.676,39.676,0,0,0-.946-4.584c-.138.013-.282.023-.431.03a72.285,72.285,0,0,1-8.033.408q-2.956-.045-5.953-.325a64.7,64.7,0,0,1,.174,7.073,30.206,30.206,0,0,1-1.12,4.705l-.393,1.2a9.457,9.457,0,0,1,1.483-.045l1.074-.06q.287.091.56.181a11.267,11.267,0,0,1,3.01.757,5.349,5.349,0,0,1,2.739,1.71,24.5,24.5,0,0,1,1.709,2.965,5.051,5.051,0,0,0,.514.605,3.432,3.432,0,0,0,1.543.893.8.8,0,0,1,.166.045,4.768,4.768,0,0,0,.756.06A7.418,7.418,0,0,0,997.86,618.594ZM981.2,257.205h.038l2.02.227q-1.116-2.379-2.292-5.174l-5.4-15.008q-7.7,5.28-8.094,5.341-11.77,6.7-12.739,13.813-.045.409-.136,1.5.037.254.076.507a1.5,1.5,0,0,1,1.18-.9,12.451,12.451,0,0,0,4.977-2.027,6.639,6.639,0,0,1,6.551-.756q.56.257,4.176,1.619a21.69,21.69,0,0,0,9.35.878C981,257.211,981.1,257.207,981.2,257.205Z" transform="translate(-560.659 -178.766)" fill="#ffaa83" fill-rule="evenodd"/>
        <path id="Path_13953" data-name="Path 13953" d="M638.152,582.48a55.327,55.327,0,0,1-2.042,7.39,9.809,9.809,0,0,1-3.374,4.463l.182.151a.18.18,0,0,1,.045.03,28.837,28.837,0,0,1,2.3,1.77,8.1,8.1,0,0,1,1.558,1.74,22.409,22.409,0,0,1,1.6,3.268,4.318,4.318,0,0,0,2.738,2.179,16.457,16.457,0,0,0,4.872.877,25.718,25.718,0,0,0,.439-2.617,3.877,3.877,0,0,1,1.089-2.572q1.18-.7,3.4-2.269a30.217,30.217,0,0,0,1.12-4.705,64.74,64.74,0,0,0-.174-7.073l-.053-.008-.908-2.859q-1.922,0-4.4.121-.257,0-.529.015l-1.422.061q-2.164.106-6.369.363Q638.188,582.644,638.152,582.48Zm7.171-365.073q-1.619.711-3.132,1.407l-12.24,6.248q-8.518,5.946-6.369,15.19.06.378.151.908.106,1.2.318,2.375.091-1.089.136-1.5.968-7.111,12.739-13.813.393-.06,8.094-5.341l5.4,15.008q1.176,2.795,2.292,5.174l2.791.31-.386-1.089q-1.26-3.544-3.018-8.374a114.509,114.509,0,0,1-4.1-13.072,23.432,23.432,0,0,1-.635-3.4q-.076-.409-.166-.787A17.4,17.4,0,0,1,645.323,217.406Z" transform="translate(-230.12 -164.399)" fill="#ed9870" fill-rule="evenodd"/>
        <path id="Path_13954" data-name="Path 13954" d="M578.761,307.219a3.22,3.22,0,0,0-2.179-1.309h-.015a3.431,3.431,0,0,0-1.014-.023,3.235,3.235,0,0,0-1.483.6,3.3,3.3,0,0,0-1.392,2.194l-4.524,25.674a3.078,3.078,0,0,0,.575,2.466q.1.14.2.265a3.1,3.1,0,0,0,1.952,1.1h.015a3.406,3.406,0,0,0,1.286-.038,3.52,3.52,0,0,0,1.256-.567,3.27,3.27,0,0,0,1.362-2.163l4.524-25.674a3.212,3.212,0,0,0-.545-2.5C578.771,307.235,578.766,307.227,578.761,307.219Zm39.358-155.179q-1.681,1.493-.219,8.646a32.809,32.809,0,0,0,3.268,9.335q.847-.468,1.876-1.006,1.808-.94,4.176-2.1a73.73,73.73,0,0,0,9.713-5.371q4.962-3.449,6.627-7.459,1.044-2.738,1.513-3.949a.062.062,0,0,0,.015-.045c-.04,0-.08.008-.121.015q-5.991.893-9.773-.681-3.767-1.589-4.357-1.891-3.51-1.6-6.854,1.3a12.553,12.553,0,0,1-5.2,2.859A1.507,1.507,0,0,0,618.119,152.039Zm54.457,375.633a18.711,18.711,0,0,0,7.519,1.1q0-24.479-.5-48.943-.121-6.112-.817-12.224-1.316-11.392-3.223-22.739-1.937-11.589-4.66-22.981-.582-2.438-1.165-4.872a131.861,131.861,0,0,1-16.143.242l-1.4-.114a264.165,264.165,0,0,1,17.1,109.588Zm-44.986-186.9,4.758-72.627L634.3,248.6q2.471-22.96,7.247-34.434l-.5-.514a84.267,84.267,0,0,0-6.279-6.021,13.437,13.437,0,0,0-4.123-2.564,3.783,3.783,0,0,0-1.158-.2,18.418,18.418,0,0,0-4.675,1.74,26.822,26.822,0,0,1-3.85,1.422q-1.309,9.632-2.171,20.818a321.784,321.784,0,0,0-2.542,38.806l.136,67.219q.735.432,1.483.847.726.408,1.5.787a44.023,44.023,0,0,0,4.69,1.649l.749.053A33.387,33.387,0,0,0,627.59,340.775Zm111.085-72.582q.424.89,1.014,1.952.67,1.219,1.558,2.663,3.888,6.294,6.006,6.294,1.967,0,2.36-2.209.045-2.284.045-2.5a12.066,12.066,0,0,0-.552-3.593,13.824,13.824,0,0,0-.764-1.937q-.11-.224-.227-.446-.523-.2-1.014-.408a5.11,5.11,0,0,1-1.513-3.139,6.991,6.991,0,0,1-.045-.809,3.82,3.82,0,0,1,1.18-3.086q1.589-1.377,4.372,1.543a7.927,7.927,0,0,0,2.36,1.6,29.865,29.865,0,0,0,3.964,1.543q2.731.876,6.551,1.755,2.073.484,8.245,1.6,6.233,1.18,9.456,1.921.484.106.923.227a1.684,1.684,0,0,0,.061-.272,7.5,7.5,0,0,0,.106-1.77q-.091-.862-.091-.938,0-2.436-6.944-6.248a68.659,68.659,0,0,0-15.265-6.052,41.7,41.7,0,0,0-13.087-1.785,18.956,18.956,0,0,0-2.163.242q-6.944,1.2-6.944,7.322a1.425,1.425,0,0,0,.106.514,3.314,3.314,0,0,0-.8,2.511A9.264,9.264,0,0,0,738.675,268.193Zm143.568,11.816h3.85q.34-.183.635-.363a8.039,8.039,0,0,0,1.377-1,2.806,2.806,0,0,0,.605-.772,5.769,5.769,0,0,0,.2-1.952q0-.331-.008-.628a5.012,5.012,0,0,0-.356-2.035q-.651-1.2-3-1.6a75.551,75.551,0,0,0-10.25-1.135q-2.608-.1-5.121,0-5.885.272-8.457,1.392a44.68,44.68,0,0,1-6.732,3.586q-.793.337-1.74.7-1.354.519-3.026,1.1-.64.248-1.15.5a5.646,5.646,0,0,0-1.634,1.089,4.2,4.2,0,0,0-.908,2.92,2.409,2.409,0,0,0,.817,2.088,4.733,4.733,0,0,0,2.784.605q3.843,0,12.36-2.935,4.583-1.584,7.307-2.322.866-.231,1.543-.378a12.481,12.481,0,0,1,1.816-1.2l.106-.061q1.2-.664,2.474-1.248,1.561-.713,3.215-1.3l.378-.129q3.283-1.15,6.551-1.952,2.615-.654,2.534,2.337a10.451,10.451,0,0,1-.2,1.717q-.758.349-2.89,1.422-1.1.554-2.572,1.3-.2.1-.393.2C882.318,279.97,882.281,279.99,882.243,280.009ZM622.529,518.278l2.527,1.422h.469q.787-8.9,1.362-17.837,1.679-26.491,2.859-53.028.3-6.853-.015-13.737a103.2,103.2,0,0,0-2.859-19.986l-4.13-.333.65-9.963q-3.761-8.241-6.891-16.71l.053,25.462q-1.875-.075-3.6-.3,2.362,7.582,4.085,15.47a126.131,126.131,0,0,1,3.177,21.241q.378,8.336.439,10.59v56.462ZM957.752,304.662q-1.187.484-.658,2.98.057.281.136.583.2,1.074.681,2.738.545.136,1.12.333.2.064.545.2,1.14.422,3.888,1.558a30.124,30.124,0,0,0,11.347,2.542q7.7,0,9.4-4.342a8.8,8.8,0,0,0,.469-3.449c-.01-.081-.02-.156-.03-.227a33.495,33.495,0,0,1-3.056,1.543q-.212.212-1.437-.666-1.377-.847-2.1-.5a12.28,12.28,0,0,0-1.725,1.21,3.886,3.886,0,0,1-1.815.968,3.759,3.759,0,0,1-.378-2.678,5.985,5.985,0,0,0,.167-1.316,2.421,2.421,0,0,1-.333-.59q-.817.53-1.755,1.089-5.961,3.328-8.866.59-3.086-2.844-4.993-2.678A1.739,1.739,0,0,0,957.752,304.662Zm12.9,238.488a4.589,4.589,0,0,0-2.027-.787,3.711,3.711,0,0,0-2.481.393,7.621,7.621,0,0,0-1.664,2.194,20.315,20.315,0,0,0-1,2.527,12.518,12.518,0,0,1-3.026,4.463q-1.3,1.3-4.024,3.691a42.119,42.119,0,0,1-4.977,2.164,37.763,37.763,0,0,0-4.993,2.239,3.825,3.825,0,0,0-1.694,2.375q-.054.217-.091.446c-.033.188-.059.382-.076.582q.984.03,2.1.03a36.192,36.192,0,0,0,14.448-2.572,20.456,20.456,0,0,0,8.033-6.052,18.936,18.936,0,0,0,3.344-6.415,14.931,14.931,0,0,0,.651-3.328,28.837,28.837,0,0,0-2.3-1.77.18.18,0,0,0-.045-.03Zm5.416-11.854q.036.164.076.325,4.206-.257,6.369-.363l1.422-.06q.272-.015.529-.015-.046-1.064-.129-2.292-1.384-20.557-13.049-86.622-10.628-60.352-12.686-85.646c-.012.134-.025.265-.038.393q-.242,2.466-.3,3.283-.757,8.548-.756,14.01,0,7.61.03,8.276a69.557,69.557,0,0,1-.424,8.578l-6.748-1.6q.637,3.472,1.422,7.1.454,2,5.341,22.391,3.253,13.525,4.63,22.421,3.222,14.221,7.08,45.478.181,1.377.318,2.708Q972.666,517.349,976.066,531.3Zm29.35,19.857q-.075.893-.182,1.891a5.028,5.028,0,0,0,.454-.242q.666-.363,1.165-.681Q1007.413,551.743,1005.416,551.153ZM981.845,151.359a26.69,26.69,0,0,1,10.605,1.067q.711.257,1.437.53a36.679,36.679,0,0,1,10.454,5.764q.393.326.824.673a78.131,78.131,0,0,0,4.909-11.067,29.387,29.387,0,0,0-7.474-3.707q-7.247-2.36-12.966-.62A11.147,11.147,0,0,0,981.845,151.359Zm-16.339,54.866q.495-.2,1.059-.424,1.959-.767,4.735-1.755a77,77,0,0,0,9.289-3.8q4.751-2.5,6.339-5.552,1-2.088,1.452-3a.044.044,0,0,0,.015-.03c.066-.008.123-.013.174-.015-.1,0-.2.006-.3.015a21.691,21.691,0,0,1-9.35-.877q-3.616-1.362-4.176-1.619a6.639,6.639,0,0,0-6.551.756,12.451,12.451,0,0,1-4.978,2.027,1.5,1.5,0,0,0-1.18.9q-.77,1.608.333,6.029A23.237,23.237,0,0,0,965.506,206.224Zm.809,11.717a.911.911,0,0,1,.1.023h.03l-.076-.015Zm-.129.023c.02-.02.03-.035.03-.045H966.2l-.015.03-.008.015Zm.045,18.73a4.872,4.872,0,0,1-.424.3V237A3.708,3.708,0,0,0,966.232,236.694Zm2.012-1.778q-.759,2.965-2.148,6.77-2.981,8.351-3.071,8.593a75.433,75.433,0,0,0-2.587,10.152q.663.03,1.362.03a4.52,4.52,0,0,0,3.994-2.254q1.6-2.406,3.48-2.406,2.405,0,6.808,6.536,3.913,5.8,8.866,6.437v-.008q-.016-.741-.015-1.483a90.258,90.258,0,0,1,.56-10.288l-9.062-.953,2.224-11.453,9.138.961q.089-.3.182-.6.545-1.74,2.557-7.217.468-1.329.862-2.5l-8.639,8.162-2.678-2.8a51.56,51.56,0,0,0-3.48-4.8,15.641,15.641,0,0,0-3.313-3.207,3.934,3.934,0,0,0-.938-.666.12.12,0,0,0-.136-.136,17.439,17.439,0,0,0-3.328,2.527Q968.544,234.638,968.244,234.917Zm9.4,157.736q-.039,1.493-.045,2.837a122.055,122.055,0,0,0,3.6,31.922,71.21,71.21,0,0,0,2.859,19.365q1.694,6.309,5.719,18.76.59,15.054.832,24.116.181,5.446.182,8.7a240.219,240.219,0,0,1-1.8,31.832l-.121.878.908,2.859.053.008q3,.28,5.953.325.15-.712.3-1.468,1.426-7.3,2.564-18.4,2.254-32.921,2.254-34.01,0-9.319-6.657-34-6.059-22.01-6.717-53.36Q982.826,392.919,977.639,392.653ZM988.88,545.707q-2.224,1.574-3.4,2.269a3.877,3.877,0,0,0-1.089,2.572,25.684,25.684,0,0,1-.439,2.617q-.076.409-.167.787a15.663,15.663,0,0,1-1.452,3.056q-.723,1.038-2.353,3.268-1.265,1.734-3.079,4.191a17.014,17.014,0,0,0-1.286,2.239h10.727q6.4-1.013,8.124-4.387a9.736,9.736,0,0,0,.643-1.664q.206-.673.416-1.528a18.219,18.219,0,0,1,1.135-3.465,26.069,26.069,0,0,1,2.92-2.648,5.045,5.045,0,0,1-.514-.605,24.49,24.49,0,0,0-1.71-2.965,5.349,5.349,0,0,0-2.738-1.71,11.263,11.263,0,0,0-3.011-.756q-.923-.091-1.634-.121a9.452,9.452,0,0,0-1.483.045Zm11.468,20.228a17.629,17.629,0,0,0,.877-1.8q.242-.635.409-1.074a6.838,6.838,0,0,0-.53,1Q1000.832,564.694,1000.348,565.934Z" transform="translate(-568.034 -113.216)" fill="#37abd8" fill-rule="evenodd"/>
        <path id="Path_13955" data-name="Path 13955" d="M630.784,1477.082q-.272-.091-.56-.182l-1.074.06Q629.861,1476.991,630.784,1477.082Z" transform="translate(-207.214 -1043.32)" fill="#fd9f6c" fill-rule="evenodd"/>
        <path id="Path_13956" data-name="Path 13956" d="M554.647,188.745a9.722,9.722,0,0,0,3.154,1.392q.3.071.6.113a6.968,6.968,0,0,0,.741.068,20.15,20.15,0,0,0,13.389-4.282q6.824-5.114,8.23-10.258a15.779,15.779,0,0,0,.772-5.847,3.279,3.279,0,0,0-.333-1.112,37.955,37.955,0,0,1-2.042-4.856,2.845,2.845,0,0,0-1.18-1.528c-.01-.02-.02-.03-.03-.03a.758.758,0,0,0-.257-.166l-5.235-.484a1.785,1.785,0,0,0-.227.015.061.061,0,0,1-.015.045q-.469,1.21-1.513,3.949-1.664,4.009-6.627,7.459a73.721,73.721,0,0,1-9.713,5.371q-2.368,1.155-4.176,2.1-1.028.538-1.876,1.006l.03.03,2.466,3.57a.657.657,0,0,1,.136.151q.378.424.757.809A17.5,17.5,0,0,0,554.647,188.745Zm7.459,12.482-4.735-.862-7.852,10.106q-.764,4.422-1.415,9.229a26.821,26.821,0,0,0,3.85-1.422,18.416,18.416,0,0,1,4.675-1.74,3.783,3.783,0,0,1,1.157.2,13.436,13.436,0,0,1,4.123,2.564,84.284,84.284,0,0,1,6.279,6.021l.5.514q.779-1.869,1.619-3.434,6.021-11.18,8.775-15.371.644-.979,1.324-1.959l-11.99,10.28a52.41,52.41,0,0,1-3.767-6.793A43.093,43.093,0,0,1,562.106,201.227Zm45.13,339.225q.424-.03.847-.03a16.375,16.375,0,0,0,10.726-3.6l4.206-3.434q-.983-5.129-1.467-10.333a62.321,62.321,0,0,1,.015-11.876,226.031,226.031,0,0,1,3.351-22.618,136.945,136.945,0,0,1-5.7-16.914q-5.916-21.688-10.031-44.707a95.648,95.648,0,0,1-12.315,1.755q.583,2.434,1.165,4.872,2.723,11.392,4.66,22.981,1.906,11.347,3.223,22.739.7,6.112.817,12.224Q607.236,515.973,607.236,540.452ZM676.7,280.624a69.619,69.619,0,0,0,9.335,2.542,106.574,106.574,0,0,0,20.977,1.891,2.967,2.967,0,0,0,1.437-.325,2.675,2.675,0,0,0,1.263-1.8c.008-.026.016-.054.023-.083q-.439-.121-.923-.227-3.223-.741-9.456-1.921-6.173-1.119-8.245-1.6-3.819-.879-6.551-1.755A29.864,29.864,0,0,1,680.6,275.8a7.925,7.925,0,0,1-2.36-1.6q-2.784-2.92-4.372-1.543a3.82,3.82,0,0,0-1.18,3.086,6.991,6.991,0,0,0,.045.809,5.11,5.11,0,0,0,1.513,3.139q.491.213,1.014.408.216.086.439.166Q676.194,280.447,676.7,280.624ZM808.2,292.281q.571-.285,1.188-.6c.038-.019.076-.039.114-.061q.195-.1.393-.2,1.469-.748,2.572-1.3,2.131-1.073,2.89-1.422a10.463,10.463,0,0,0,.2-1.717q.081-2.991-2.534-2.337-3.268.8-6.551,1.952l-.378.129q-1.654.588-3.215,1.3-1.27.584-2.474,1.248l-.106.061a12.476,12.476,0,0,0-1.816,1.2,6.375,6.375,0,0,0-.5.454,2.628,2.628,0,0,0-.908,1.793,2.811,2.811,0,0,0,.409,1.664q.786,1.1,3.238,1.1Q801.651,295.557,808.2,292.281ZM554.73,352.45a33.383,33.383,0,0,1-2.784-2.572l-.749-.053a43.988,43.988,0,0,1-4.69-1.649q-.772-.379-1.5-.787-.747-.415-1.483-.847l.114,53.239q3.13,8.469,6.891,16.71ZM575.5,428.512l-21.491-1.725a103.21,103.21,0,0,1,2.859,19.986q.318,6.884.015,13.737-1.18,26.537-2.859,53.028-.575,8.941-1.362,17.837l2.451.06a34.537,34.537,0,0,0,16.945-4.13l2.481-1.71q-.136-2.269-.2-4.524a146.62,146.62,0,0,1,1.18-23.42q.787-5.931,3.177-17.414,2.406-11.483,1.241-19.8-1.15-8.306-3.51-18.563A44.1,44.1,0,0,1,575.5,428.512Zm301.084-156.4q.046-.209.1-.416l-.008.008C876.643,271.841,876.613,271.977,876.587,272.114ZM933.434,567.4q.333-1.982.56-3.6-.5.318-1.165.681a5.01,5.01,0,0,1-.454.242,7.417,7.417,0,0,1-3.192.968,4.761,4.761,0,0,1-.756-.06.8.8,0,0,0-.166-.045,3.434,3.434,0,0,1-1.543-.893,26.1,26.1,0,0,0-2.92,2.648,18.215,18.215,0,0,0-1.135,3.465q-.21.855-.416,1.528a9.733,9.733,0,0,1-.643,1.664q-1.725,3.374-8.124,4.388H902.737l-.136.318-.045.106a12.7,12.7,0,0,0-.923,2.965v.061a.444.444,0,0,0-.015.106,22.568,22.568,0,0,0,4.75.832q1.5.06,4.4.242a39.6,39.6,0,0,0,6.309.136,17.991,17.991,0,0,0,6.143-1.362,4.68,4.68,0,0,0,.787-.378.79.79,0,0,1,.106-.045,9.174,9.174,0,0,0,3-3.086l.363-.635a.044.044,0,0,0,.015-.03q.484-1.241.757-1.876a6.845,6.845,0,0,1,.529-1l.015-.015a1.615,1.615,0,0,1,.061-.2q.106-.3.166-.514a10.615,10.615,0,0,1,.477-1.165,14.47,14.47,0,0,1,1.43-2.315Q931.528,569.666,933.434,567.4ZM922.92,545.929a72.271,72.271,0,0,0,8.034-.409c.149-.007.293-.017.431-.03l.2-.03q3.177-14.085,4.887-21.181,2.965-12.164,5.87-21,.258-.968.424-1.952a53.847,53.847,0,0,0,.151-18.73,93.462,93.462,0,0,0-5.825-20q-1.876-12.905,1.377-32.028.832-4.569,1.5-8.109.7-3.177,1.5-7.4l2.746-12q-3.922.676-8.783,1.112a186.831,186.831,0,0,1-20.772.53q.658,31.35,6.717,53.36,6.657,24.676,6.657,34,0,1.089-2.254,34.01-1.138,11.1-2.564,18.4Q923.069,545.216,922.92,545.929Zm10.333-374.113A36.858,36.858,0,0,1,940,180.167a29.937,29.937,0,0,1,.477,5.159q.689-2.128,1.778-4.947l.476-1.278q1.4-3.787,1.581-4.531,1.438-5.749-3.207-11.044A24.028,24.028,0,0,0,937.217,160a78.129,78.129,0,0,1-4.909,11.067Q932.759,171.43,933.253,171.816Zm-27.739,53.217a21.787,21.787,0,0,0,10.31-2.9q6.536-3.707,7.867-7.64a17.407,17.407,0,0,0,.628-2.277,4.3,4.3,0,0,0-.2-3.094,30.285,30.285,0,0,1-1.952-3.843,2.552,2.552,0,0,0-1.12-1.241.044.044,0,0,0-.03-.015,2.043,2.043,0,0,0-.257-.136l-.2-.023-2.791-.31-2.02-.227h-.038c-.05,0-.108.007-.174.015a.044.044,0,0,1-.015.03q-.454.908-1.452,3-1.589,3.056-6.339,5.552a77,77,0,0,1-9.289,3.8q-2.776.988-4.735,1.755-.565.222-1.059.424l.015.015,2.375,2.859.121.121q4.04,3.8,7.852,4.07A23.708,23.708,0,0,0,905.514,225.032Zm-17.936,47.089a68.452,68.452,0,0,0-1.1,12.224,28.5,28.5,0,0,0,.272,3.964l25.455-4.947q-.03-1.515-.114-2.912-4.952-.642-8.866-6.437-4.4-6.536-6.808-6.536-1.876,0-3.48,2.406a4.52,4.52,0,0,1-3.994,2.254q-.7,0-1.361-.03Zm13.525,45.1a2.415,2.415,0,0,0,.333.59,5.977,5.977,0,0,1-.167,1.316,3.76,3.76,0,0,0,.378,2.678,3.885,3.885,0,0,0,1.815-.968,12.28,12.28,0,0,1,1.725-1.21q.726-.348,2.1.5,1.225.877,1.437.666a33.5,33.5,0,0,0,3.056-1.543c.01.071.02.146.03.227a8.8,8.8,0,0,1-.469,3.449q-1.694,4.342-9.4,4.342a30.123,30.123,0,0,1-11.347-2.542q-2.748-1.137-3.888-1.558-.347-.133-.545-.2-.574-.2-1.119-.333c.03.1.06.207.091.318a.113.113,0,0,0,.015.045q-.378,4.72,1.755,5.325.4.113.756.227a7.554,7.554,0,0,1,2.269,1.089q.151.121.318.242a5.994,5.994,0,0,0,2.285.923q7.61,2.164,12.088,1.785,4.357-.333,5.87-1.331a21.282,21.282,0,0,1,3.525-2.179q2.012-1.15,3.465-1.861a13.408,13.408,0,0,1,3.147-2.164l-2.678-4.009-2.708-4.009q.2-.136.363-.257a23.536,23.536,0,0,1,1.967-1.3l-2.557,1.2q-.378.121-.636.2a1.363,1.363,0,0,1-.348.242,1.885,1.885,0,0,0-.257.076l-.136.03a.752.752,0,0,1-.333.242,1.934,1.934,0,0,1-.257.076l-.121.045a3.425,3.425,0,0,1-1.241.091l-.121.03-5.34-2.012a1.889,1.889,0,0,1-.575-.53,1.944,1.944,0,0,0-.257.076Q902.283,315.089,901.1,317.222Zm-.3,50.267q-3.388-7.075-8.435-17.527a2.185,2.185,0,0,1-1.248-1.861l-.219-1.233q-1.19-2.59-2.595-5.484-.022.27-.045.545-.484,6.354-1.21,13.4-.881,8.695-1.308,12.966,2.058,25.294,12.686,85.646,11.665,66.064,13.049,86.622.083,1.228.128,2.292,2.481-.121,4.4-.121l.121-.878a240.217,240.217,0,0,0,1.8-31.832q0-3.253-.182-8.7-.242-9.063-.832-24.116-4.024-12.451-5.719-18.76a71.207,71.207,0,0,1-2.859-19.365,122.058,122.058,0,0,1-3.6-31.922q.007-1.343.045-2.837-1.413-.074-2.859-.159-2.315-17.626-1.664-29.653Q900.447,371.073,900.8,367.488ZM871.738,575.113a8.748,8.748,0,0,0,.136,1.952,27.524,27.524,0,0,0,14.675,1.12,40.3,40.3,0,0,0,13.783-5.462l.333-.182,1.051-.545q2.455-1.261,3.26-1.664a24.318,24.318,0,0,1,4.493-1.649,15.666,15.666,0,0,0,1.452-3.056q.091-.378.167-.787a16.457,16.457,0,0,1-4.872-.877,4.317,4.317,0,0,1-2.738-2.179,22.424,22.424,0,0,0-1.6-3.268,8.1,8.1,0,0,0-1.558-1.74,14.928,14.928,0,0,1-.651,3.328,18.939,18.939,0,0,1-3.343,6.415,20.459,20.459,0,0,1-8.034,6.052,36.191,36.191,0,0,1-14.448,2.572Q872.721,575.143,871.738,575.113Z" transform="translate(-495.174 -124.89)" fill="#278cb4" fill-rule="evenodd"/>
        <path id="Path_13957" data-name="Path 13957" d="M660.991,1491.964a51.815,51.815,0,0,0,5.885-.045q3.117-.318,5.916-.8,1.363-.236,2.678-.537a39.2,39.2,0,0,0,15.795-7.421,64.439,64.439,0,0,0-.106-6.77q-.026-.506-.06-1.036a21.239,21.239,0,0,1-.151-2.511,10.312,10.312,0,0,1-.605,2.8q-.09.251-.189.491a7.971,7.971,0,0,1-5.454,4.667q-4.069,7.05-14.842,7.686h-2.981q-2.814,0-6.263-.166-3.116-.287-8.745-.772a18.134,18.134,0,0,0,.318,3.283A56.1,56.1,0,0,0,660.991,1491.964Zm-78.142-13.019a55.623,55.623,0,0,0,19.138,1.1,114.972,114.972,0,0,0,15.764-2.814q2.829-.787,5.961-1.589a21.83,21.83,0,0,0,7.035,2.042,28.149,28.149,0,0,0,8.442,0,18.907,18.907,0,0,0,2.36-.454q5.138-1.46,5.492-5.552a9.912,9.912,0,0,0-.484-3.677,16.819,16.819,0,0,1-4.539,2.33,23.789,23.789,0,0,1-5.439,1.324q-1.152.156-2.4.234-1.24.181-6.869.182a44.53,44.53,0,0,0-6.732.62q-1.422.469-2.829,1.074a71.742,71.742,0,0,1-17.187,3.465,59.559,59.559,0,0,1-11.9-.469,55.52,55.52,0,0,1-8.419-1.876h-.166q-.636,0-.484,1.24.151.636.484,2.042Q581.443,1478.6,582.849,1478.946Zm388.727,15.212a5.534,5.534,0,0,0,.439,3.707,4.084,4.084,0,0,0,3.1,2.345,49.079,49.079,0,0,0,8.926.318,43.385,43.385,0,0,0,8.926-1.225,6.435,6.435,0,0,0,3.767-3.359q1.483-3.313,2.239-4.781a23.872,23.872,0,0,0,2.6-1.725,4.331,4.331,0,0,0,1.725-2.481q.129-.766.219-1.483a17.113,17.113,0,0,0-.129-5.855q-1.906,2.269-2.511,3.132a14.477,14.477,0,0,0-1.43,2.315,10.6,10.6,0,0,0-.477,1.165q-.06.212-.166.514a1.61,1.61,0,0,0-.061.2l-.015.015q-.166.439-.408,1.074a17.646,17.646,0,0,1-.878,1.8.044.044,0,0,1-.015.03l-.363.635a9.176,9.176,0,0,1-3,3.086.817.817,0,0,0-.106.045,4.685,4.685,0,0,1-.787.378,17.992,17.992,0,0,1-6.142,1.362,39.616,39.616,0,0,1-6.309-.136q-2.9-.182-4.4-.242A22.576,22.576,0,0,1,971.576,1494.158Zm-29.744-4.872a3.6,3.6,0,0,0-.832,2.678,1.982,1.982,0,0,0,1.573,2.012,26.094,26.094,0,0,0,9.047,2.012,30.169,30.169,0,0,0,9.244-1.089,24.807,24.807,0,0,0,6.475-3.45,18.091,18.091,0,0,1,6.657-3.086q1.815-2.456,3.079-4.191,1.629-2.23,2.353-3.268a24.342,24.342,0,0,0-4.493,1.649q-.806.4-3.26,1.664-.491.255-1.052.545l-.333.182a40.3,40.3,0,0,1-13.782,5.462A27.524,27.524,0,0,1,941.832,1489.287Z" transform="translate(-565.133 -1037.113)" fill="#061e5d" fill-rule="evenodd"/>
        <path id="Path_13958" data-name="Path 13958" d="M678.925,744.49q1.4,2.894,2.595,5.484L679.409,738Q679.2,741.145,678.925,744.49Zm4.062,8.578q5.047,10.451,8.434,17.527.879-8.941,2.769-18.768.058-.3.113-.6l-9.781,1.9A2.773,2.773,0,0,1,682.987,753.069Z" transform="translate(-285.795 -527.998)" fill="#18a7a9" fill-rule="evenodd"/>
        <path id="Path_13959" data-name="Path 13959" d="M626.086,344.489l.53-2.148a16.512,16.512,0,0,0,.741-1.952,7.18,7.18,0,0,0-.424-5.068,6.61,6.61,0,0,0-2.549-2.746,17.408,17.408,0,0,1-.628,2.277q-1.331,3.934-7.867,7.64a21.787,21.787,0,0,1-10.31,2.9,8.612,8.612,0,0,1-.295,1.914,6.35,6.35,0,0,1-.8,4.251q-.393.545-2.678,3.722a8.288,8.288,0,0,0-1.725,3.752,1.361,1.361,0,0,0,0,.8l.408,1.6a4.306,4.306,0,0,0,1.074,1.589,138.8,138.8,0,0,1,13.041-8.4,46.176,46.176,0,0,0,11.044-9.554Q625.875,344.778,626.086,344.489Z" transform="translate(-195.239 -245.247)" fill="#ce7c56" fill-rule="evenodd"/>
        <path id="Path_13960" data-name="Path 13960" d="M588.873,379.151l-6.309,15.976q-.179.67-.363,1.354a4.892,4.892,0,0,0,.424-.3l1.793-1.573q.106-.1.219-.212v.008q.3-.279.635-.6a17.44,17.44,0,0,1,3.328-2.527.12.12,0,0,1,.136.136,3.934,3.934,0,0,1,.938.666,15.64,15.64,0,0,1,3.313,3.207,51.575,51.575,0,0,1,3.48,4.8l2.678,2.8,8.639-8.162v-.008l12.95-12.239q.169-.084.318-.174,2.449-1.508-.318-5.015a63.326,63.326,0,0,0-5.462-5.341q-.211.289-.439.582a46.177,46.177,0,0,1-11.044,9.554,138.83,138.83,0,0,0-13.041,8.4,4.307,4.307,0,0,1-1.074-1.589l-.408-1.6a1.362,1.362,0,0,1,0-.8,8.289,8.289,0,0,1,1.725-3.752q2.285-3.177,2.678-3.722a6.349,6.349,0,0,0,.8-4.251A15.341,15.341,0,0,0,588.873,379.151Z" transform="translate(-184.426 -272.708)" fill="#8ed2ff" fill-rule="evenodd"/>
        <path id="Path_13961" data-name="Path 13961" d="M581.595,629.152l-.8,3.79a2.05,2.05,0,0,0,1.876,2.784l20.023,3.533a5.873,5.873,0,0,1,1.036-1.763l-17.565-3.1a1.866,1.866,0,0,1-1.664-2.542l.348-1.642a3.4,3.4,0,0,1-1.286.038h-.015A3.1,3.1,0,0,1,581.595,629.152Zm33.36-29.4q.059-1.15.106-1.959l-6.521-1.15-16.914-2.988a2.235,2.235,0,0,0-2.9,1.937l-.5,2.368a3.429,3.429,0,0,1,1.014.023h.015a3.219,3.219,0,0,1,2.179,1.309l.3-1.414a1.989,1.989,0,0,1,2.572-1.77Zm134.089-11.1,117.387,8.185q2.284,16.43,14.418,29.426a53.413,53.413,0,0,0,27.142,16.173q-2.179,69.791-18.427,127.19a106.127,106.127,0,0,1-29.335,47.793q29.547-22.83,39.351-56.386,16.264-57.4,18.427-127.191a53.412,53.412,0,0,1-27.142-16.173q-12.134-13-14.4-29.426l-125.027-8.73A46.782,46.782,0,0,1,749.044,588.644Zm-38.73,36.113A46.485,46.485,0,0,0,727.2,614.545q1.694-1.574,3.162-3.222a45.072,45.072,0,0,1-20.273,7.02l.741-.038-.741.053Q710.192,621.58,710.313,624.757ZM657.588,807.7a34.538,34.538,0,0,1-16.945,4.13l-2.451-.061h-.469l-2.526-1.422a3.576,3.576,0,0,0-.3.348l-2.981,3.283a4.645,4.645,0,0,1-.817.923q.817.151,1.936.439,4.524,1.271,7.322,2.073,11.12,3.737,13,14.524-7.035,0-20.031,3.434-6.4,1.725-12.648,3.449a60.134,60.134,0,0,1-20.818-3.283q-.454.151-.923.318l-.167.166L595.65,842.1v.953h.166a55.518,55.518,0,0,0,8.419,1.876,59.54,59.54,0,0,0,11.9.469,71.732,71.732,0,0,0,17.187-3.465q1.407-.6,2.829-1.074a44.539,44.539,0,0,1,6.732-.62q5.628,0,6.869-.182,1.246-.079,2.4-.234a23.786,23.786,0,0,0,5.439-1.324,16.824,16.824,0,0,0,4.539-2.33,60.228,60.228,0,0,0-1.891-14.4q-.469-2.345-.923-4.357-.166-.8-.318-1.422A51.5,51.5,0,0,1,657.588,807.7Zm35.175,13.147a18.709,18.709,0,0,1-7.519-1.1l.182,1.271-.953,2.8q-.151.318-.318.772a8.707,8.707,0,0,1,1.271.787,35.426,35.426,0,0,0,5.3,2.814q7.822,3.9,7.822,10.182a12.353,12.353,0,0,1-.673,4.35,5.757,5.757,0,0,1-2.927,3.306q-4.993,2.345-22.5,2.345a10.39,10.39,0,0,1-2.527-.318,2.4,2.4,0,0,1-.756.771,6.8,6.8,0,0,0-1.725,6.9q5.628.484,8.745.772,3.449.167,6.263.166h2.98q10.772-.635,14.842-7.686a7.971,7.971,0,0,0,5.454-4.667q.1-.24.189-.492a10.312,10.312,0,0,0,.605-2.8,21.549,21.549,0,0,0-.318-4.993q-.454-6.415-.605-9.4a54.269,54.269,0,0,0-1.256-9.41,16.375,16.375,0,0,1-10.727,3.6Q693.187,820.816,692.763,820.846Zm91.849-158.1q-4.735-5.431-4.781-5.492-3.495-3.011-4.221-1.1-.711,1.891,1.452,4.418a34.662,34.662,0,0,0,4.962,4.645q1-1.044,2.073-2.042Zm11.483-6.521q1.241-.393,2.512-.681-.318-1.5-.817-3.54-1.891-7.217-1.906-7.307-1.785-4.191-3.344-3-1.589,1.24-.8,4.387a34.763,34.763,0,0,0,2.769,7.111Q795.293,654.789,796.095,656.226Zm-10.046,34.056,1.452-.091a44.231,44.231,0,0,0,7.428-.983.824.824,0,0,1,.091-.151q.106-.136-.182-.59-.363-.62-7.7-1.936l-2.194-.363q-5.038-.847-4.977-.862-.56.3-1.014.59-2.481,1.543-2.118,2.617.257.786,1.982,1.256.7.167,1.6.3A32.56,32.56,0,0,0,786.049,690.281Zm-4.1-14.978q1.211.8,2.284,1.452.877.5,1.649.877a1.488,1.488,0,0,0,.424-.378,1.528,1.528,0,0,0,.015-.847,6.1,6.1,0,0,0-1.8-2.844,10.93,10.93,0,0,0-.968-.968q-.892-.817-2.088-1.755a1.612,1.612,0,0,0-.136-.121q-.514-.408-2.375-1.71-1.467-1.029-3.8-2.617a6.116,6.116,0,0,1-2.042-2.678,31.644,31.644,0,0,0-1.407-3.222,6.81,6.81,0,0,0-2.512-2.753,11.047,11.047,0,0,0-5.446-1.225,2.9,2.9,0,0,0-1.135,2.284,13.629,13.629,0,0,0,.288,2.073,6.2,6.2,0,0,0,1.12,2.754,6.725,6.725,0,0,0,2.133,1.634q2.012.953,3.374,1.634a42.958,42.958,0,0,1,4.887,2.859q.212.136,2.8,2.073,1.059.787,2.511,1.876a.407.407,0,0,0,.106.076Q780.936,674.593,781.949,675.3Zm-8.639,11.332q-1.271-.2-2.572-.272a7.868,7.868,0,0,1-2.133-.439,11.848,11.848,0,0,1-4.221-2.738,5.7,5.7,0,0,0-1.664-1.15,7.289,7.289,0,0,0-7.61.726,1.923,1.923,0,0,0,.166,2.648,14.479,14.479,0,0,0,1.8,2.481,4.212,4.212,0,0,0,2.829,1.5q3.192.227,6.369.136a16.1,16.1,0,0,1,2.693.166q2.179.318,4.357.605-.045-.968-.045-1.937Q773.28,687.482,773.311,686.635Zm.53-5.038a32.518,32.518,0,0,1,.968-4.024q-4.13-1.695-4.07-1.725-3.979,1.059-3.873,2.36.121,1.135,3.238,2.3A30.542,30.542,0,0,0,773.84,681.6Zm1.157,18.5a39.045,39.045,0,0,1-1.505-7.5,6.957,6.957,0,0,0-4.418,2.632,3.491,3.491,0,0,0,.8,2.617,15.465,15.465,0,0,0,2.3,2.027,4.119,4.119,0,0,0,1.694.772ZM759.1,707.831l8.919-4.342q-1.192-.381-1.929-.56a5.709,5.709,0,0,0-3.495.227,8.94,8.94,0,0,0-3.752,3.616A4.1,4.1,0,0,0,759.1,707.831Zm73.906-42.679q3.828-4.448,3.828-4.372.151-4.236-1.1-4.72-1.074-.424-3,1.967a30.027,30.027,0,0,0-2.89,4.508A38.469,38.469,0,0,1,833.01,665.152ZM813.887,655.5q1.785.333,3.495.832a4.009,4.009,0,0,0,.121-.5q1.483-6.974,1.5-7.065.212-4.372-1.815-4.055t-2.708,3.328a31.879,31.879,0,0,0-.59,7.307Zm-9.017,2.269q.348,3.011.772,5.976l.575.151a2.518,2.518,0,0,0,1.513-2.042,32.234,32.234,0,0,0,.408-4.085,29.193,29.193,0,0,0,0-2.965,34.735,34.735,0,0,0-.363-4.055,7.413,7.413,0,0,1-.015-2.163,9.2,9.2,0,0,1,1.831-4.3,4.637,4.637,0,0,0,.756-1.679,8.236,8.236,0,0,0-2.284-7.686,1.848,1.848,0,0,0-2.617.182,12.349,12.349,0,0,0-2.058,1.831,3.391,3.391,0,0,0-.862,2.875,61.666,61.666,0,0,0,1.165,6.445,15.206,15.206,0,0,1,.409,2.723q.181,2.9.469,5.81Q804.7,656.271,804.87,657.769Zm16.9.121a35.256,35.256,0,0,1,3.344,1.619,31.452,31.452,0,0,0,1.634-3.828,7.052,7.052,0,0,1,.983-1.831,9.244,9.244,0,0,1,3.676-2.753,4.238,4.238,0,0,0,1.5-1.044q2.753-3.041,1.362-7.549a2.087,2.087,0,0,0-2.511-1.044,13.9,13.9,0,0,0-2.769.575,3.178,3.178,0,0,0-2.118,2.012,52.1,52.1,0,0,0-1.861,5.946,13.492,13.492,0,0,1-.862,2.5Q822.9,655.167,821.769,657.89Zm-32.558,5.174q1.437,2.224,3.752,5.235a57.273,57.273,0,0,0,6.475,7.459,5.371,5.371,0,0,0,.03-2.224q-.091-.575-.5-2.088a54.909,54.909,0,0,0-3.646-10.015q-.363-.711-.711-1.377a19.552,19.552,0,0,0-1.664-2.648q-2.481-3.238-4.841-2.179a3,3,0,0,0-1.377,1.815,6.906,6.906,0,0,0,.333,1.725,10.7,10.7,0,0,0,.605,1.573A25.7,25.7,0,0,0,789.211,663.064Zm37.248.575q.454-2.527-1.18-2.708a2.811,2.811,0,0,0-2.224.726,6.006,6.006,0,0,0-1.316,1.71,29.085,29.085,0,0,0-2.406,6.732,47.567,47.567,0,0,0-1.271,7.428.691.691,0,0,1,.121.166q.091.136.575.106.666-.06,4.039-6.309,3.222-6.2,3.253-6.263A11.212,11.212,0,0,0,826.459,663.639Zm-31.907,18.9a8.434,8.434,0,0,0,3.207,1.936,16.487,16.487,0,0,0,3.964.983.662.662,0,0,0,.136-.091q.136-.075.257-.5.151-.545-2.5-3.3l-2.678-2.633q-2.012-1.059-2.753.681A2.473,2.473,0,0,0,794.552,682.535Zm3.041,37.323q-.726,1.014-1.392,2.1-.726,1.2-1.362,2.5-.5,1.029-.938,2.1a6.488,6.488,0,0,1-1.059,1.77,9.081,9.081,0,0,1-3.813,2.587,3.71,3.71,0,0,0-1.543.984q-2.9,2.89-1.725,7.413a2.055,2.055,0,0,0,2.481,1.15,12.626,12.626,0,0,0,2.814-.424,3.233,3.233,0,0,0,2.224-1.921,52.151,52.151,0,0,0,2.133-5.84,12.646,12.646,0,0,1,.968-2.421q.953-1.846,1.846-3.692.635-1.3,1.256-2.6.53-1.15,1.029-2.3.938-2.1,1.815-4.236l-.484-.424a2.536,2.536,0,0,0-2.36.923Q798.485,718.649,797.593,719.859Zm-5.061-2.965-11.248,5.477a3.523,3.523,0,0,0,.756,1.3,3.913,3.913,0,0,0,2.254,1.029,6.523,6.523,0,0,0,1.513-.635,14,14,0,0,0,3.661-3.238q.832-.984,1.785-2.209Zm13.034,11.634a34.781,34.781,0,0,1-4.161-1.135q-1.165,3.934-1.18,3.873,1.5,4.146,2.784,4.13,1.1-.015,1.906-3.086A29.237,29.237,0,0,0,805.566,728.528Zm5.023.787q-.015,1.71-.03,4.327a4.9,4.9,0,0,1-1.089,2.89,26.443,26.443,0,0,0-1.952,2.587,5.371,5.371,0,0,0-.893,3.328,11.843,11.843,0,0,0,2.133,5.3q1.256,1.074,2.073.741a9.569,9.569,0,0,0,2.163-1.573,6.231,6.231,0,0,0,1.755-2.33,6.038,6.038,0,0,0,.136-2.542q-.378-2.164-.59-3.661a37.286,37.286,0,0,1-.408-5.477q0-.257.151-3.4.06-1.271.136-2.98V726.5q.076-1.392.061-2.617a28.179,28.179,0,0,0-.288-4.312,1.694,1.694,0,0,0-.575-.212,1.363,1.363,0,0,0-.741.318q-1.15.893-1.664,4.1-.2,1.135-.3,2.572v.091Q810.634,727.045,810.589,729.315Zm14.963-1.71A29.507,29.507,0,0,1,822,728.664q1.664,6.354,1.694,6.445,1.8,4.191,3.374,2.965t.787-4.372A33.6,33.6,0,0,0,825.551,727.6Zm9.229-5.2a32.681,32.681,0,0,1-2.769,2.012.384.384,0,0,1,.091.091,8.964,8.964,0,0,1,1.074,1.967,11.14,11.14,0,0,1,.635,4.856,4.9,4.9,0,0,0,.212,1.937,8.756,8.756,0,0,0,5.7,5.885,1.688,1.688,0,0,0,2.012-1.5,13.4,13.4,0,0,0,.787-2.738,4.012,4.012,0,0,0-.741-3.071,61.346,61.346,0,0,0-4.145-5.3,16.871,16.871,0,0,1-1.694-2.3Q835.37,723.339,834.78,722.4Zm6.369-6.642a32.325,32.325,0,0,1-2.451,2.98q3.979,4.054,3.9,4.039,4.221.862,4.66-.318.378-1.028-2.073-3.374A35.066,35.066,0,0,0,841.149,715.759Zm4.418-8.835-1.694-1q-.514-.318-1.014-.59a37.03,37.03,0,0,0-5.371-2.617,1.342,1.342,0,0,0-.378.439,1.487,1.487,0,0,0,.091.847q.545,1.861,4.508,4.508.5.318,1.029.651.409.257,1.634.953,1.679.938,4.887,2.678a6.38,6.38,0,0,1,2.33,2.451,32.089,32.089,0,0,0,1.74,3.071,6.652,6.652,0,0,0,2.769,2.5,10.808,10.808,0,0,0,5.492.62,1.95,1.95,0,0,0,1.044-1.71,13.849,13.849,0,0,0-.651-2.723,6.751,6.751,0,0,0-1.467-2.708,6.584,6.584,0,0,0-2.269-1.377q-2.088-.711-3.51-1.256a40.235,40.235,0,0,1-5.114-2.33Q849.349,709.193,845.567,706.924Zm1.619-10.742q-1.255-.348-2.95-.681-2.224-.423-5.174-.772-.427-.049-.84-.091l-4.955,2.413a55.387,55.387,0,0,0,9.577,4.516q.424.151.847.287a20.151,20.151,0,0,0,2.935.741q4.433.757,5.053-2.042a3.845,3.845,0,0,0-.56-2.39,7.805,7.805,0,0,0-1.5-1A11.336,11.336,0,0,0,847.186,696.182Zm8.487-10.046L847,690.357a34.249,34.249,0,0,0,4.161-.182,7.144,7.144,0,0,1,2.133.076,11.9,11.9,0,0,1,4.539,2.088,6.062,6.062,0,0,0,1.8.862,7.038,7.038,0,0,0,7.292-1.952,2.073,2.073,0,0,0-.59-2.663,15.693,15.693,0,0,0-2.148-2.179,4.019,4.019,0,0,0-3-1.044A52.8,52.8,0,0,0,855.673,686.136Zm147.433-90.26a1.91,1.91,0,0,0,.257-.076,7.4,7.4,0,0,1,1.15-.771q1.937-1,8.533-5.492l.355-.234-4.455-25.258a2.1,2.1,0,0,0-2.8-1.921l-8.419,1.634L972.273,568.7l-1.815.348-1.785.348a2.189,2.189,0,0,0-1.952,2.859l4.024,22.8.272,1.558q1.906-.166,4.993,2.678,2.9,2.739,8.866-.59.938-.56,1.755-1.089,1.18-2.133,4.3-1.982a1.926,1.926,0,0,1,.257-.076,1.891,1.891,0,0,0,.575.53L997.1,598.1l.121-.03a3.427,3.427,0,0,0,1.241-.091l.121-.045a1.941,1.941,0,0,0,.257-.076.753.753,0,0,0,.333-.242l.136-.03a1.889,1.889,0,0,1,.257-.076,1.366,1.366,0,0,0,.348-.242q.257-.076.635-.2Zm4.312,29.1,9.486-1.838a2.2,2.2,0,0,0,1.967-2.859l-.159-.885-3.162-17.9q-3.2,1.415-4.819,2.126a22.845,22.845,0,0,0-3.253,1.241q-.681.272-1.316.59a13.4,13.4,0,0,0-3.147,2.164q-1.452.711-3.465,1.861a21.272,21.272,0,0,0-3.525,2.179q-1.513,1-5.87,1.331-4.478.378-12.088-1.785a5.994,5.994,0,0,1-2.285-.923q-.166-.121-.318-.242a7.559,7.559,0,0,0-2.269-1.089l1.12,6.339,2.11,11.975.219,1.233a2.185,2.185,0,0,0,1.248,1.861,2.771,2.771,0,0,0,1.536.061l9.781-1.9ZM804.492,673.9a8.2,8.2,0,0,0,1.12,3.54A18.465,18.465,0,0,0,808,680.9c.01,0,.071.015.182.045a.99.99,0,0,0,.56-.136q.5-.242.363-3.888-.227-3.571-.227-3.616-.832-2.1-2.633-1.528Q804.4,672.339,804.492,673.9Zm24.933,25.031-3.873,1.884q1.266.933,1.286.953,2.1.726,2.572-1.15A3.086,3.086,0,0,0,829.424,698.928ZM824.9,721.644a9.924,9.924,0,0,0,3.359,1.392,1.109,1.109,0,0,0,.923-.257.81.81,0,0,0,.2-.393,5.015,5.015,0,0,0-.726-2.753q-.151-.318-.318-.651a27.457,27.457,0,0,0-1.74-2.844q-1.044-1.589-2.436-3.389a57.961,57.961,0,0,0-5.3-6.021.571.571,0,0,1-.212-.015q-.167-.015-.378.409-.3.575,3.011,7.549.469.953.862,1.785,2.451,5.008,2.39,4.977Zm-11.77-14.781-4.486,2.179-.007.045q.288,2.209,2.224,2.148,1.967-.045,2.3-1.528A6.9,6.9,0,0,0,813.13,706.863Z" transform="translate(-580.702 -405.284)" fill="#cb2d55" fill-rule="evenodd"/>
        <path id="Path_13962" data-name="Path 13962" d="M644.325,406.684q1.034-27.213,1.46-35.72l-20.651-3.646a1.989,1.989,0,0,0-2.572,1.77l-.3,1.415.015.023a3.213,3.213,0,0,1,.545,2.5L618.3,398.7a3.271,3.271,0,0,1-1.362,2.163,3.518,3.518,0,0,1-1.256.567l-.348,1.641a1.866,1.866,0,0,0,1.664,2.542l17.565,3.1a6.19,6.19,0,0,1,1.634-1.346,10.427,10.427,0,0,1,6.944-.908Q643.744,406.553,644.325,406.684Zm40.72-129.233q-4.775,11.474-7.247,34.434l-1.952,19.547,19.176-39.116-7.86-.825,2.224-11.453,11.082,1.165,4.819-9.834-6.869-7.4,12.572-1.452,8.654-19.97-.983-2.148-8.215-6.332-.091-.068q1.5,3.525-1.876,7.686-3.4,4.161-6.854,8.457-2.623,3.3-4.864,6.543-.679.981-1.324,1.959-2.754,4.191-8.775,15.371Q685.824,275.581,685.045,277.451Zm-25.3,53.481a321.772,321.772,0,0,1,2.542-38.806q.862-11.186,2.171-20.818.65-4.807,1.415-9.229a160.971,160.971,0,0,1,5.129-21.725,17.5,17.5,0,0,1-2.95-2.489q-1.007.664-2.164,1.49l-.545.741-10.923,18.624,6.445,2.269-7.625,6.763Zm265.992,12.361q-.617.312-1.188.6l-.5,8.6v.348a36.8,36.8,0,0,0,33.647,36.2l8.851.847,14.146-.908-8.835-.847a36.8,36.8,0,0,1-33.662-36.2v-.348l.416-7.171.114-2-.605-.03-7.9.545q-.3.18-.635.363Zm103.249-23.011,8.094.847,1.278-6.589.946-4.864-1.929-.2-6.089-.635-9.138-.961-2.224,11.453Z" transform="translate(-611.532 -176.499)" fill="#fff" fill-rule="evenodd"/>
        <path id="Path_13963" data-name="Path 13963" d="M1754.319,105.209h.03q.03-.454.061-.923a12.053,12.053,0,0,1,.257-1.225,9.32,9.32,0,0,1,.424-1.331,5.608,5.608,0,0,1,.257-.726,16.13,16.13,0,0,0-8.245-2.542,42.536,42.536,0,0,0-8.639.847,76.254,76.254,0,0,1-8.624,1.12,17,17,0,0,1-8.366-1.679q-.5,2.844-1.074,5.3,2.753.711,6.354,1.422a42.193,42.193,0,0,0,15.885.242A37.41,37.41,0,0,1,1754.319,105.209Zm-19.713,42.112a14.173,14.173,0,0,0,2.875,4.4q1.785,1.77,6.853.287l.34-.2a25.635,25.635,0,0,0,3.639-1.324A34.172,34.172,0,0,0,1763.351,137l-.227-2.421-.045-.764c.035-.162.067-.321.1-.477q.421-1.959.673-3.177a41.708,41.708,0,0,0,.908-6.052l-.56-.121a8.561,8.561,0,0,1-.832.84,6.63,6.63,0,0,1-5.583,1.536q-.016.325-.045.643a15.782,15.782,0,0,1-.771,5.847q-1.407,5.144-8.23,10.258a20.15,20.15,0,0,1-13.389,4.282A6.969,6.969,0,0,1,1734.606,147.321Z" transform="translate(-1671.381 -81.961)" fill="#f18d69" fill-rule="evenodd"/>
        <path id="Path_13964" data-name="Path 13964" d="M1723.321,236.062a17.924,17.924,0,0,0-.6,5.447q.212,4.3.166,4.781l4.735.862a49.891,49.891,0,0,0,7.852-3.813,69.445,69.445,0,0,0,17.9-14.963l-.711-2.527a34.173,34.173,0,0,1-15.038,13.48,25.648,25.648,0,0,1-3.639,1.324l-.34.2q-5.068,1.483-6.853-.287a14.177,14.177,0,0,1-2.875-4.4Q1723.62,236.133,1723.321,236.062Z" transform="translate(-1660.693 -170.815)" fill="#d67958" fill-rule="evenodd"/>
        <path id="Path_13965" data-name="Path 13965" d="M1706.114,76.714a17,17,0,0,0,8.366,1.679,76.269,76.269,0,0,0,8.623-1.12,42.537,42.537,0,0,1,8.639-.847,16.13,16.13,0,0,1,8.245,2.542,5.625,5.625,0,0,0-.257.726,9.337,9.337,0,0,0-.424,1.331q3.555-.212,6.748-.7a50.077,50.077,0,0,0,7.867-1.831,29.39,29.39,0,0,0-3.283-7.4l-1.664-2.315a1.2,1.2,0,0,0-.083-.091,1.646,1.646,0,0,0-.219-.212q-7.943,2.073-9.531,2.421-7.307,1.483-11.906.575-18.578-3.691-24.343-4.63-.787.5-1.5,1.014a10.01,10.01,0,0,0,1.347,4.947A12.556,12.556,0,0,0,1706.114,76.714Zm48.988,8.563a39.085,39.085,0,0,0-5.991.348A43.067,43.067,0,0,0,1739.383,88a26.754,26.754,0,0,0,4.07,8.548q2.345,1.21,3.828-1.694.741-1.77,1.1-2.632a7.936,7.936,0,0,1,1.21-2.118q4.13,3.767-.756,11.846l.56.121q5.855-4.856,5.749-14.721l-.03-1Q1755.117,85.776,1755.1,85.277Z" transform="translate(-1656.021 -59.926)" fill="#452312" fill-rule="evenodd"/>
        <path id="Path_13966" data-name="Path 13966" d="M1747.55,52.736q-7.635-9.241-22.792-8.745a50.383,50.383,0,0,0-13.782,2.557,43.663,43.663,0,0,0-9.425,4.342q5.764.938,24.342,4.63,4.6.908,11.907-.575,1.588-.348,9.531-2.421A1.668,1.668,0,0,1,1747.55,52.736Zm-9.509,19.3a43.065,43.065,0,0,1,9.728-2.375,39.086,39.086,0,0,1,5.991-.348,33.792,33.792,0,0,0-1.18-6.778,50.086,50.086,0,0,1-7.867,1.831q-3.192.484-6.748.7a12.154,12.154,0,0,0-.257,1.225q-.03.469-.061.923h-.03A14.774,14.774,0,0,0,1738.042,72.041Z" transform="translate(-1654.68 -43.966)" fill="#7a3a1e" fill-rule="evenodd"/>
        <path id="Path_13967" data-name="Path 13967" d="M1742.243,131.746a1.783,1.783,0,0,1,.227-.015l5.235.484a.759.759,0,0,1,.257.166c.01,0,.02.01.03.03a2.844,2.844,0,0,1,1.18,1.528,37.953,37.953,0,0,0,2.042,4.856,3.277,3.277,0,0,1,.333,1.112q.03-.319.046-.643a6.63,6.63,0,0,0,5.583-1.536,8.587,8.587,0,0,0,.832-.84q4.887-8.079.756-11.846a7.94,7.94,0,0,0-1.21,2.118q-.363.862-1.1,2.632-1.483,2.9-3.828,1.694a26.754,26.754,0,0,1-4.07-8.548,14.773,14.773,0,0,1-.423-4.826,37.409,37.409,0,0,0-11.68.5,42.194,42.194,0,0,1-15.885-.242q-3.6-.711-6.354-1.422-.348,1.362-.711,2.572,2.164,6.233,1.6,9.683a15.211,15.211,0,0,0,.174,4.486,1.507,1.507,0,0,1,.658-.34,12.553,12.553,0,0,0,5.2-2.859q3.344-2.9,6.854-1.3.59.3,4.357,1.891,3.782,1.574,9.773.681C1742.163,131.754,1742.2,131.75,1742.243,131.746Z" transform="translate(-1665.19 -94.866)" fill="#ffb087" fill-rule="evenodd"/>
        <path id="Path_13968" data-name="Path 13968" d="M875.686,596.862a32.049,32.049,0,0,1-4.592.893q-.6.069-1.218.121a34.51,34.51,0,0,1-5.31.015L855.7,597.5l.242,8.624a623.921,623.921,0,0,0,9.229,97.553q4.115,23.019,10.031,44.706a136.934,136.934,0,0,0,5.7,16.914q22.47,54.624,92.4,89.731,2.155,1.084,4.357,2.148l3.313,1.679,3.253-1.225q1.96-.67,3.881-1.354,1.068-.379,2.126-.764,79.034-29.214,96.493-92.348,17.746-62.62,19.244-139.551l.212-8.593-8.851-.847a36.8,36.8,0,0,1-33.647-36.2v-.348l.5-8.6q-6.545,3.276-7.474,3.275-2.451,0-3.238-1.1a2.812,2.812,0,0,1-.408-1.664,2.628,2.628,0,0,1,.908-1.793l-1.044-.076q-2.724.738-7.307,2.322-8.518,2.935-12.36,2.935a4.732,4.732,0,0,1-2.784-.605,2.408,2.408,0,0,1-.817-2.088,4.2,4.2,0,0,1,.908-2.92,5.644,5.644,0,0,1,1.634-1.089l-67.763-4.743a2.968,2.968,0,0,1-1.437.325,106.572,106.572,0,0,1-20.976-1.891l-9.789-.688a12.064,12.064,0,0,1,.552,3.593q0,.212-.045,2.5-.393,2.209-2.36,2.209-2.118,0-6.006-6.294-.889-1.444-1.558-2.663L897.7,556.8l.5,9.229a2.024,2.024,0,0,1,.03.363,35.686,35.686,0,0,1-.461,5.817,29.844,29.844,0,0,1-9.418,17.421A30.411,30.411,0,0,1,875.686,596.862Zm46.2-21.014,125.027,8.729q2.269,16.43,14.4,29.426a53.411,53.411,0,0,0,27.142,16.173q-2.164,69.79-18.427,127.191-9.8,33.556-39.351,56.386-17.02,13.162-40.622,22.754-2.208.908-4.493,1.77-2.27.862-4.6,1.71-72.59-36.219-89.11-95.086-6.174-22.675-10.31-46.855a593.042,593.042,0,0,1-7.8-74.965,1.617,1.617,0,0,0-.015-.227q-.151-3.843-.272-7.716,1.293-.127,2.557-.318A45.427,45.427,0,0,0,900.6,602.762a46.167,46.167,0,0,0,10.333-13.919,37.965,37.965,0,0,0,1.815-4.342,46.517,46.517,0,0,0,2.209-9.138Z" transform="translate(-751.158 -401.625)" fill="#e8ebff" fill-rule="evenodd"/>
        <path id="Path_13969" data-name="Path 13969" d="M839.526,554.342l-6.339.4L858.3,556.5q-.59-1.061-1.014-1.952l-2.784-.2-7.171-.5-1.014.061Zm37.982,3.5a69.616,69.616,0,0,1-9.335-2.542l-1.218-.083a13.843,13.843,0,0,1,.764,1.937Zm90.177,6.309q.51-.251,1.15-.5,1.671-.578,3.026-1.1l-70.675-4.947a2.675,2.675,0,0,1-1.263,1.8Zm21.771,1.52a6.347,6.347,0,0,1,.5-.454q-.678.148-1.543.378Zm-73,291.122,14.146-.908,2.375-.877.893-.333q84.375-28.987,102.485-94.481,17.746-62.62,19.244-139.551l.212-8.593-14.146.908-.212,8.593q-1.5,76.932-19.244,139.551-17.459,63.134-96.493,92.348-1.057.385-2.126.764-1.92.684-3.881,1.354Zm4.6-20.576q-70.4-35.992-86.629-93.831-15.522-56.946-18.17-123.348-.121-3.177-.227-6.4l-7.08.439q.121,3.873.272,7.716a1.625,1.625,0,0,1,.015.227,593.021,593.021,0,0,0,7.8,74.965q4.136,24.18,10.31,46.855,16.521,58.867,89.111,95.086Q918.787,837.082,921.057,836.22ZM1006.718,565a8.032,8.032,0,0,1-1.377,1l7.9-.545Z" transform="translate(-686.646 -399.568)" fill="#abb1eb" fill-rule="evenodd"/>
        <path id="Path_13970" data-name="Path 13970" d="M1464.75,657.924l7.08-.439.741-.053-.741.038a45.072,45.072,0,0,0,20.273-7.02,49.445,49.445,0,0,0,6.869-5.371,45.662,45.662,0,0,0,11.816-17.308,46.773,46.773,0,0,0,2.39-9.138l-6.929-.484a46.509,46.509,0,0,1-2.209,9.138,37.921,37.921,0,0,1-1.816,4.342,46.16,46.16,0,0,1-10.333,13.919,45.427,45.427,0,0,1-24.585,12.058Q1466.043,657.8,1464.75,657.924Z" transform="translate(-1342.446 -444.412)" fill="#9999ef" fill-rule="evenodd"/>
        <path id="Path_13971" data-name="Path 13971" d="M1090.652,809.625a35.023,35.023,0,0,1,3.056-2.405,10.714,10.714,0,0,1-.605-1.574,6.9,6.9,0,0,1-.333-1.725,3,3,0,0,1,1.376-1.816q2.36-1.059,4.841,2.179a29.539,29.539,0,0,1,3.147-1.18q-.8-1.437-1.588-3.026a34.765,34.765,0,0,1-2.769-7.111q-.786-3.147.8-4.387,1.558-1.2,3.344,3,.015.091,1.906,7.307.5,2.042.817,3.54a33.906,33.906,0,0,1,5.961-.756q-.287-2.9-.469-5.81a15.194,15.194,0,0,0-.408-2.723,61.685,61.685,0,0,1-1.165-6.445,3.392,3.392,0,0,1,.862-2.875,12.344,12.344,0,0,1,2.058-1.831,1.848,1.848,0,0,1,2.617-.182,8.236,8.236,0,0,1,2.285,7.686,4.639,4.639,0,0,1-.756,1.679,9.2,9.2,0,0,0-1.831,4.3,7.4,7.4,0,0,0,.015,2.164,34.734,34.734,0,0,1,.363,4.055q1.044.045,2.088.151,1.876.2,3.661.545v-.151a31.885,31.885,0,0,1,.59-7.307q.681-3.011,2.708-3.328t1.815,4.055q-.015.091-1.5,7.065a4,4,0,0,1-.121.5,38.333,38.333,0,0,1,4.387,1.558q1.135-2.723,2.375-5.4a13.485,13.485,0,0,0,.862-2.5,52.121,52.121,0,0,1,1.861-5.946,3.178,3.178,0,0,1,2.118-2.012,13.911,13.911,0,0,1,2.769-.575,2.087,2.087,0,0,1,2.511,1.044q1.391,4.509-1.362,7.549a4.236,4.236,0,0,1-1.5,1.044,9.243,9.243,0,0,0-3.676,2.754,7.055,7.055,0,0,0-.984,1.831,31.417,31.417,0,0,1-1.634,3.828,37.548,37.548,0,0,1,4.735,3.026,30.022,30.022,0,0,1,2.89-4.509q1.922-2.391,3-1.967,1.256.484,1.1,4.72,0-.075-3.828,4.372a45.671,45.671,0,0,1,3.359,3.343q.53.6,1.036,1.2l25.984-12.663a83.742,83.742,0,0,0-5.87-7.148q-19.592-21.407-47.309-23.828-27.7-2.421-47.309,15.538-19.592,17.988-19.592,45.811a70.34,70.34,0,0,0,4.735,25.81l11.06-5.386a4.1,4.1,0,0,1-.257-1.059,8.94,8.94,0,0,1,3.752-3.616,5.709,5.709,0,0,1,3.495-.227q.737.179,1.929.56l5.847-2.844a4.117,4.117,0,0,1-1.694-.772,15.461,15.461,0,0,1-2.3-2.027,3.491,3.491,0,0,1-.8-2.617,6.957,6.957,0,0,1,4.418-2.633q-.121-1.15-.166-2.3-2.179-.287-4.357-.605a16.1,16.1,0,0,0-2.693-.166q-3.177.091-6.369-.136a4.213,4.213,0,0,1-2.829-1.5,14.5,14.5,0,0,1-1.8-2.481,1.923,1.923,0,0,1-.166-2.648,7.288,7.288,0,0,1,7.61-.726,5.7,5.7,0,0,1,1.664,1.15,11.853,11.853,0,0,0,4.221,2.738,7.868,7.868,0,0,0,2.133.439q1.3.075,2.572.272a42.233,42.233,0,0,1,.53-5.038,30.542,30.542,0,0,1-3.737-1.089q-3.117-1.165-3.237-2.3-.106-1.3,3.873-2.36-.06.03,4.07,1.725a30.771,30.771,0,0,1,2.406-5.749q-2.587-1.937-2.8-2.073a42.931,42.931,0,0,0-4.887-2.859q-1.362-.681-3.374-1.634a6.723,6.723,0,0,1-2.133-1.634,6.2,6.2,0,0,1-1.12-2.754,13.641,13.641,0,0,1-.288-2.073,2.9,2.9,0,0,1,1.135-2.285,11.046,11.046,0,0,1,5.446,1.226,6.81,6.81,0,0,1,2.512,2.753,31.637,31.637,0,0,1,1.407,3.222,6.116,6.116,0,0,0,2.042,2.678q2.329,1.589,3.8,2.617a33.99,33.99,0,0,1,3.071-3.8,34.652,34.652,0,0,1-4.962-4.645q-2.163-2.527-1.452-4.418.726-1.906,4.221,1.1Q1085.917,804.194,1090.652,809.625Zm-3.328,59.624-21.612,10.53q1.54,1.891,3.23,3.737,19.607,21.408,47.309,23.828t47.309-15.538q19.607-17.989,19.607-45.811a71.009,71.009,0,0,0-3.321-21.809l-18.132,8.828a52.79,52.79,0,0,1,5.522-.772,4.019,4.019,0,0,1,3,1.044,15.685,15.685,0,0,1,2.148,2.179,2.073,2.073,0,0,1,.59,2.663,7.038,7.038,0,0,1-7.292,1.952,6.067,6.067,0,0,1-1.8-.862,11.894,11.894,0,0,0-4.539-2.088,7.149,7.149,0,0,0-2.133-.076,34.259,34.259,0,0,1-4.161.182l-.181.091a40.177,40.177,0,0,1,.363,5.431v.3a11.343,11.343,0,0,1,2.436.983,7.812,7.812,0,0,1,1.5,1,3.844,3.844,0,0,1,.56,2.39q-.62,2.8-5.053,2.042-.151.832-.333,1.649-.3,1.377-.726,2.678,3.783,2.269,4.055,2.406a40.21,40.21,0,0,0,5.114,2.33q1.422.545,3.51,1.256a6.584,6.584,0,0,1,2.269,1.377,6.752,6.752,0,0,1,1.467,2.708,13.833,13.833,0,0,1,.651,2.723,1.949,1.949,0,0,1-1.044,1.71,10.807,10.807,0,0,1-5.492-.62,6.651,6.651,0,0,1-2.769-2.5,32.054,32.054,0,0,1-1.74-3.071,6.382,6.382,0,0,0-2.33-2.451q-3.207-1.74-4.887-2.678a31.6,31.6,0,0,1-3.223,5.643,35.1,35.1,0,0,1,4.039,3.328q2.451,2.345,2.073,3.374-.439,1.18-4.66.318.076.015-3.9-4.039-1.089,1.2-2.33,2.315-.787.711-1.589,1.346.59.938,1.165,1.846a16.883,16.883,0,0,0,1.694,2.3,61.314,61.314,0,0,1,4.146,5.3,4.011,4.011,0,0,1,.741,3.071,13.4,13.4,0,0,1-.787,2.738,1.688,1.688,0,0,1-2.012,1.5,8.756,8.756,0,0,1-5.7-5.885,4.9,4.9,0,0,1-.212-1.937,11.14,11.14,0,0,0-.635-4.856,8.971,8.971,0,0,0-1.074-1.967.38.38,0,0,0-.091-.091,31.289,31.289,0,0,1-6.46,3.192,33.6,33.6,0,0,1,2.3,6.1q.772,3.147-.787,4.372-1.574,1.225-3.374-2.965-.03-.091-1.694-6.445a34.676,34.676,0,0,1-7.958.832q-.151,3.147-.151,3.4a37.262,37.262,0,0,0,.408,5.477q.212,1.5.59,3.661a6.037,6.037,0,0,1-.136,2.542,6.23,6.23,0,0,1-1.755,2.33,9.565,9.565,0,0,1-2.163,1.573q-.817.333-2.073-.741a11.841,11.841,0,0,1-2.133-5.3,5.37,5.37,0,0,1,.893-3.328,26.4,26.4,0,0,1,1.952-2.587,4.9,4.9,0,0,0,1.089-2.89q.016-2.618.031-4.327c-.111-.01-.232-.025-.363-.045a41.484,41.484,0,0,1-4.66-.741,29.234,29.234,0,0,1-.651,3.782q-.8,3.071-1.906,3.086-1.286.015-2.784-4.13.015.061,1.18-3.873-1.6-.56-3.177-1.225-.892,1.846-1.846,3.691a12.643,12.643,0,0,0-.968,2.421,52.153,52.153,0,0,1-2.133,5.84,3.233,3.233,0,0,1-2.224,1.921,12.634,12.634,0,0,1-2.814.424,2.055,2.055,0,0,1-2.481-1.15q-1.18-4.523,1.725-7.413a3.706,3.706,0,0,1,1.543-.983,9.079,9.079,0,0,0,3.813-2.587,6.487,6.487,0,0,0,1.059-1.77q.439-1.074.938-2.1a41.182,41.182,0,0,1-5.371-3.631,14,14,0,0,1-3.661,3.238,6.521,6.521,0,0,1-1.513.635,3.913,3.913,0,0,1-2.254-1.029A3.526,3.526,0,0,1,1087.324,869.249Z" transform="translate(-886.742 -552.163)" fill="#9e2b46" fill-rule="evenodd"/>
        <path id="Path_13972" data-name="Path 13972" d="M1196.789,871.651a38.3,38.3,0,0,0-4.387-1.558q-1.709-.5-3.495-.832t-3.661-.545q-1.044-.106-2.088-.151a29.157,29.157,0,0,1,0,2.965q1.029.06,2.088.166a36.578,36.578,0,0,1,3.813.59q1.362.272,2.678.635a34.851,34.851,0,0,1,3.964,1.407q1.21.484,2.375,1.089a2.81,2.81,0,0,1,2.224-.726q1.634.182,1.18,2.708,1.059.7,2.088,1.483,1.331,1,2.587,2.133a40.137,40.137,0,0,1,3.132,3.147q.26.285.514.575l2.625-1.278q-.506-.6-1.036-1.2a45.686,45.686,0,0,0-3.359-3.344,38.451,38.451,0,0,0-3.162-2.617,37.553,37.553,0,0,0-4.735-3.026A35.242,35.242,0,0,0,1196.789,871.651Zm-16.9-.121q-.167-1.5-.3-2.98a33.9,33.9,0,0,0-5.961.756q-1.271.288-2.511.681a29.56,29.56,0,0,0-3.147,1.18,19.545,19.545,0,0,1,1.664,2.648,24.973,24.973,0,0,1,3.117-1.12q.711-.2,1.453-.363A30.076,30.076,0,0,1,1179.89,871.53Zm-20.258,4.977-.514.424q-1.074,1-2.073,2.042a33.982,33.982,0,0,0-3.071,3.8q1.861,1.3,2.375,1.71a1.606,1.606,0,0,1,.136.121,29.74,29.74,0,0,1,3.071-3.737q.8-.817,1.664-1.589.212-.212.423-.408l.545-.454q1-.832,2.042-1.589a25.714,25.714,0,0,1-1.543-2.723A34.972,34.972,0,0,0,1159.632,876.508Zm-7.4,9.077a30.763,30.763,0,0,0-2.406,5.749,32.546,32.546,0,0,0-.968,4.024,42.309,42.309,0,0,0-.53,5.038q-.031.847-.03,1.725,0,.968.046,1.937.045,1.15.166,2.3a39.046,39.046,0,0,0,1.505,7.5l2.64-1.286a36.521,36.521,0,0,1-1.2-6.059q-.106-1.059-.166-2.118-.046-.983-.045-1.982,0-.771.03-1.5a36.711,36.711,0,0,1,.53-4.932,31.286,31.286,0,0,1,.847-3.48,28.789,28.789,0,0,1,2.088-5.038Q1153.292,886.372,1152.233,885.585Zm64.5,36.688q-.227.514-.469,1.029a29.416,29.416,0,0,1-2.678,4.448,26.635,26.635,0,0,1-2.042,2.5,29.685,29.685,0,0,1-2.254,2.254q-.575.529-1.2,1.029a29.492,29.492,0,0,1-2.8,2.042q-.439.288-.893.575a.81.81,0,0,1-.2.393,1.109,1.109,0,0,1-.923.257,29.948,29.948,0,0,1-4.115,1.816,27.275,27.275,0,0,1-2.89.847,32.273,32.273,0,0,1-7.08.817q-.075,1.71-.136,2.98a34.684,34.684,0,0,0,7.958-.832,29.5,29.5,0,0,0,3.555-1.059,31.291,31.291,0,0,0,6.46-3.192,32.734,32.734,0,0,0,2.769-2.012q.8-.636,1.589-1.347,1.241-1.12,2.33-2.315a32.3,32.3,0,0,0,2.451-2.98,31.585,31.585,0,0,0,3.223-5.643q-1.225-.7-1.634-.953Q1217.228,922.591,1216.729,922.273Zm-31.121,20.8q.045-2.27.076-2.875v-.091q-.212-.015-.439-.045a38.911,38.911,0,0,1-4.4-.7q-1.846-.423-3.586-1-1.407-.469-2.753-1.044-.62,1.3-1.256,2.6,1.574.666,3.177,1.225a34.785,34.785,0,0,0,4.16,1.135,41.523,41.523,0,0,0,4.66.741C1185.376,943.051,1185.5,943.066,1185.608,943.076Zm-21.12-8.488a41.208,41.208,0,0,0,5.371,3.631q.635-1.3,1.362-2.5a37.1,37.1,0,0,1-4.947-3.344Q1165.32,933.605,1164.488,934.589Zm57.158-18.231a20.158,20.158,0,0,1-2.935-.741,30.191,30.191,0,0,1-.832,3.48q.5.272,1.014.59l1.694,1q.424-1.3.726-2.678Q1221.495,917.19,1221.646,916.358Zm-2.391-7.1q1.695.333,2.95.681v-.3a40.176,40.176,0,0,0-.363-5.431l-2.776,1.346A35.783,35.783,0,0,1,1219.255,909.262Z" transform="translate(-955.721 -619.046)" fill="#ff9fc8" fill-rule="evenodd"/>
        <path id="Path_13973" data-name="Path 13973" d="M1176.432,880.685q.348.666.711,1.377a54.912,54.912,0,0,1,3.646,10.015q.408,1.513.5,2.088a5.372,5.372,0,0,1-.03,2.224,57.282,57.282,0,0,1-6.475-7.459q-2.314-3.011-3.752-5.235-1.044.756-2.042,1.589l-.545.454q-.212.2-.424.409-.862.771-1.664,1.589a29.765,29.765,0,0,0-3.071,3.737q1.2.938,2.088,1.755.726-1.028,1.528-2.012-.348,1.452-.56,2.98a6.107,6.107,0,0,1,1.8,2.844,1.529,1.529,0,0,1-.015.847,1.488,1.488,0,0,1-.424.378q-.772-.378-1.649-.878-.045.908-.045,1.846,0,1.649.136,3.268.06.574.121,1.165.182,1.589.5,3.132l2.194.363q7.338,1.316,7.7,1.937.287.454.182.59a.82.82,0,0,0-.091.151,44.24,44.24,0,0,1-7.428.983l-1.452.091a36.935,36.935,0,0,0,1.49,3.707l47.241-23.011q-.255-.29-.514-.575a40.145,40.145,0,0,0-3.132-3.147q-1.256-1.135-2.587-2.133-1.029-.787-2.088-1.483a11.218,11.218,0,0,1-.408,1.589q-.031.061-3.253,6.263-3.374,6.248-4.039,6.309-.484.03-.575-.106a.686.686,0,0,0-.121-.167,47.553,47.553,0,0,1,1.271-7.428,29.079,29.079,0,0,1,2.406-6.732,6.005,6.005,0,0,1,1.316-1.71q-1.165-.6-2.375-1.089a34.8,34.8,0,0,0-3.964-1.407q-1.316-.363-2.678-.635a36.616,36.616,0,0,0-3.812-.59q-1.059-.106-2.088-.166a32.238,32.238,0,0,1-.408,4.085,2.518,2.518,0,0,1-1.513,2.042l-.575-.151q-.424-2.966-.772-5.976a30.081,30.081,0,0,0-5.688.8q-.741.167-1.453.363A24.966,24.966,0,0,0,1176.432,880.685Zm-14.887,13.646a28.778,28.778,0,0,0-2.088,5.038,31.309,31.309,0,0,0-.847,3.48,36.751,36.751,0,0,0-.529,4.932q-.03.726-.03,1.5,0,1,.045,1.982.06,1.059.166,2.118a36.511,36.511,0,0,0,1.2,6.059l2.3-1.12a32.828,32.828,0,0,1-.741-3.623q-.227-1.558-.318-3.177-.03-.56-.061-1.12-1.724-.469-1.982-1.256-.363-1.074,2.118-2.617a28.972,28.972,0,0,1,.454-3.268,28.27,28.27,0,0,1,.711-2.829,24.817,24.817,0,0,1,1.831-4.493q-1.013-.711-2.118-1.528A.407.407,0,0,1,1161.545,894.331Zm14.826,8.835a2.473,2.473,0,0,1-.363-2.92q.741-1.74,2.753-.681l2.678,2.632q2.647,2.753,2.5,3.3-.121.424-.257.5a.66.66,0,0,1-.136.091,16.492,16.492,0,0,1-3.964-.983A8.438,8.438,0,0,1,1176.371,903.166Zm16.415,41.242q-.363-.03-.741-.076a37.339,37.339,0,0,1-4.312-.7q-1.483-.348-2.92-.8-1.271-.423-2.481-.938-.5,1.15-1.029,2.3,1.347.575,2.753,1.044,1.74.575,3.586,1a38.875,38.875,0,0,0,4.4.7q.227.031.439.045Q1192.589,945.543,1192.786,944.408Zm3.268.106q.015,1.225-.061,2.617v.015a32.274,32.274,0,0,0,7.08-.817,27.294,27.294,0,0,0,2.89-.847,29.975,29.975,0,0,0,4.115-1.816,9.926,9.926,0,0,1-3.359-1.392q-1.029.454-2.1.817a21.508,21.508,0,0,1-2.133.62A28.417,28.417,0,0,1,1196.054,944.514Zm-22.981-5.265a37.054,37.054,0,0,0,4.947,3.344q.666-1.089,1.392-2.1a34.625,34.625,0,0,1-4.743-3.124l-.318.159Zm13.238-44.722q-.091-1.558,1.755-2.118,1.8-.575,2.632,1.528,0,.045.227,3.616.136,3.646-.363,3.888a.99.99,0,0,1-.56.136q-.166-.045-.182-.045a18.474,18.474,0,0,1-2.391-3.465A8.2,8.2,0,0,1,1186.311,894.528Zm21.06,26.915-12.421,6.052a6.9,6.9,0,0,1,.03,2.844q-.333,1.482-2.3,1.528-1.937.06-2.224-2.148l.008-.045-5.114,2.489a35.935,35.935,0,0,0,14.668,4.713,37.7,37.7,0,0,0,3.949.212q-.393-.832-.862-1.785-3.313-6.975-3.011-7.549.212-.424.378-.408a.573.573,0,0,0,.212.015,58.008,58.008,0,0,1,5.3,6.021q1.392,1.8,2.436,3.389.348-.06.681-.106,1.453-.257,2.859-.635a31.089,31.089,0,0,0,4.055-1.422q.787-.348,1.543-.741-.514.636-1.074,1.256a28.978,28.978,0,0,1-2.224,2.224q-.424.393-.862.772a27.433,27.433,0,0,1-2.663,1.967c-.081.06-.166.121-.257.182a5.013,5.013,0,0,1,.726,2.753q.454-.288.893-.575a29.524,29.524,0,0,0,2.8-2.042q.62-.5,1.2-1.029a29.683,29.683,0,0,0,2.254-2.254,26.633,26.633,0,0,0,2.042-2.5,29.421,29.421,0,0,0,2.678-4.448q.242-.514.469-1.029-3.964-2.648-4.509-4.509a1.488,1.488,0,0,1-.091-.847,1.343,1.343,0,0,1,.378-.439,37.031,37.031,0,0,1,5.371,2.617,30.179,30.179,0,0,0,.832-3.48q-.424-.136-.847-.287a55.383,55.383,0,0,1-9.577-4.516l-3.843,1.876a3.086,3.086,0,0,1-.015,1.687q-.469,1.876-2.572,1.15Q1208.637,922.376,1207.371,921.442Zm18.684-5.31a35.783,35.783,0,0,0-.189-3.707l-5.825,2.844q.413.042.84.091Q1223.831,915.708,1226.055,916.132Z" transform="translate(-962.521 -625.915)" fill="#ff5a81" fill-rule="evenodd"/>
        <path id="Path_13974" data-name="Path 13974" d="M1014.582,825.217l21.612-10.53,11.249-5.477.318-.159,10.681-5.2,5.114-2.489,4.486-2.179,12.421-6.052,3.873-1.884,3.843-1.876,4.955-2.413,5.825-2.844,2.776-1.346.182-.091,8.669-4.221,18.132-8.828,7.345-3.578a80.178,80.178,0,0,1,4.312,34.162q-2.648,31.5-26.446,49.487-23.813,18-54.858,11.967t-51.076-32.558q-.182-.242-.378-.5Zm-11.627-19.683-6.7,3.268a80.191,80.191,0,0,1-5.673-37.7q2.647-31.5,26.461-49.5,23.8-17.988,54.828-11.952t51.106,32.543q1.362,1.8,2.617,3.616l-7.292,3.548-25.984,12.663-2.625,1.278-47.24,23.011-7.6,3.7-2.3,1.12-2.64,1.286-1.127.552-5.847,2.844-8.919,4.342ZM997.8,836.791Q1021.4,868,1057.92,875.1q36.491,7.1,64.526-14.07,28.019-21.2,31.135-58.247T1133.1,734.518q-23.616-31.226-60.108-38.322-36.522-7.1-64.541,14.085t-31.136,58.232Q974.2,805.565,997.8,836.791Z" transform="translate(-835.612 -497.601)" fill="#fec8d5" fill-rule="evenodd"/>
      </g>
    </g>
  </g>
</svg>
