<svg id="Layer_1" enable-background="new 0 0 512.003 512.003" height="512" viewBox="0 0 512.003 512.003" width="512" xmlns="http://www.w3.org/2000/svg"><g><path d="m499.601 48.412-208-48c-2.37-.55-4.83-.55-7.2 0l-12.4 2.86-195.6 45.14c-7.26 1.67-12.4 8.14-12.4 15.59v170.53c0 64.04 21.96 126.9 61.82 177.02 37.21 46.77 88.75 80.84 146.18 96.87 4.11 1.16 8.24 2.21 12.4 3.17 1.19.27 2.39.41 3.6.41s2.41-.14 3.6-.41c62.39-14.4 118.71-49.93 158.58-100.04 39.86-50.12 61.82-112.98 61.82-177.02v-170.529c0-7.45-5.14-13.921-12.4-15.591z" fill="#f3d4b7"/><path d="m499.601 48.412-208-48c-2.37-.55-4.83-.55-7.2 0l-12.4 2.86 195.6 45.14c7.26 1.67 12.4 8.14 12.4 15.59v170.53c0 64.04-21.96 126.9-61.82 177.02-37.21 46.77-88.75 80.83-146.17 96.87 4.11 1.16 8.23 2.21 12.39 3.17 1.19.27 2.39.41 3.6.41s2.41-.14 3.6-.41c62.39-14.4 118.71-49.93 158.58-100.04 39.86-50.12 61.82-112.98 61.82-177.02v-170.529c0-7.45-5.14-13.921-12.4-15.591z" fill="#e1c3a7"/><path d="m264.001 312.003c-4.095 0-8.189-1.562-11.313-4.687l-64-64c-6.249-6.248-6.249-16.379 0-22.627 6.248-6.249 16.379-6.249 22.627 0l52.687 52.686 100.687-100.686c6.248-6.249 16.379-6.249 22.627 0 6.249 6.248 6.249 16.379 0 22.627l-112 112c-3.125 3.125-7.22 4.687-11.315 4.687z" fill="#9af9ff"/><path d="m157.261 370.743c-4.095 0-8.189-1.562-11.313-4.687-6.249-6.248-6.249-16.379 0-22.627l22.62-22.62c6.249-6.249 16.379-6.249 22.627 0 6.249 6.248 6.249 16.379 0 22.627l-22.62 22.62c-3.125 3.125-7.219 4.687-11.314 4.687z" fill="#98d7ce"/><path d="m44.121 483.882c-4.095 0-8.189-1.562-11.313-4.687-6.249-6.248-6.249-16.379 0-22.627l22.62-22.62c6.249-6.249 16.379-6.249 22.627 0 6.249 6.248 6.249 16.379 0 22.627l-22.62 22.62c-3.124 3.125-7.219 4.687-11.314 4.687z" fill="#98d7ce"/><path d="m179.881 483.882c-4.095 0-8.189-1.562-11.314-4.687l-22.62-22.62c-6.249-6.249-6.249-16.379 0-22.627 6.248-6.249 16.378-6.249 22.627 0l22.62 22.62c6.249 6.249 6.249 16.379 0 22.627-3.123 3.125-7.218 4.687-11.313 4.687z" fill="#98d7ce"/><path d="m66.742 370.743c-4.095 0-8.189-1.562-11.314-4.687l-22.62-22.62c-6.249-6.249-6.249-16.379 0-22.627 6.248-6.249 16.378-6.249 22.627 0l22.62 22.62c6.249 6.249 6.249 16.379 0 22.627-3.124 3.125-7.219 4.687-11.313 4.687z" fill="#98d7ce"/><path d="m32.001 400.003c0 38.63 27.53 70.96 64 78.39 5.17 1.06 10.52 1.61 16 1.61 44.11 0 80-35.89 80-80s-35.89-80-80-80c-5.48 0-10.83.55-16 1.61-36.47 7.43-64 39.76-64 78.39z" fill="#acebe2"/><g fill="#98d7ce"><path d="m192.001 400.003c0 44.11-35.89 80-80 80-5.48 0-10.83-.55-16-1.61 36.47-7.43 64-39.76 64-78.39s-27.53-70.96-64-78.39c5.17-1.06 10.52-1.61 16-1.61 44.11 0 80 35.89 80 80z"/><path d="m112.001 368.003c-8.836 0-16-7.164-16-16v-48c0-8.836 7.164-16 16-16s16 7.164 16 16v48c0 8.836-7.163 16-16 16z"/><path d="m112.001 512.003c-8.836 0-16-7.164-16-16v-48c0-8.836 7.164-16 16-16s16 7.164 16 16v48c0 8.836-7.163 16-16 16z"/><path d="m208.001 416.003h-48c-8.836 0-16-7.164-16-16s7.164-16 16-16h48c8.836 0 16 7.164 16 16s-7.163 16-16 16z"/><path d="m64.001 416.003h-48c-8.836 0-16-7.164-16-16s7.164-16 16-16h48c8.836 0 16 7.164 16 16s-7.163 16-16 16z"/></g></g></svg>